  0
SECTION
  2
HEADER
  9
$ACADVER
  1
AC1027
  9
$ACADMAINTVER
 70
   125
  9
$DWGCODEPAGE
  3
ANSI_1252
  9
$REQUIREDVERSIONS
160
                 0
  9
$INSBASE
 10
0.0
 20
0.0
 30
0.0
  9
$EXTMIN
 10
1.000000000000000E+20
 20
1.000000000000000E+20
 30
1.000000000000000E+20
  9
$EXTMAX
 10
-1.000000000000000E+20
 20
-1.000000000000000E+20
 30
-1.000000000000000E+20
  9
$LIMMIN
 10
0.0
 20
0.0
  9
$LIMMAX
 10
12.0
 20
9.0
  9
$ORTHOMODE
 70
     0
  9
$REGENMODE
 70
     1
  9
$FILLMODE
 70
     1
  9
$QTEXTMODE
 70
     0
  9
$MIRRTEXT
 70
     0
  9
$LTSCALE
 40
1.0
  9
$ATTMODE
 70
     1
  9
$TEXTSIZE
 40
0.2
  9
$TRACEWID
 40
0.05
  9
$TEXTSTYLE
  7
Standard
  9
$CLAYER
  8
0
  9
$CELTYPE
  6
ByLayer
  9
$CECOLOR
 62
   256
  9
$CELTSCALE
 40
1.0
  9
$DISPSILH
 70
     0
  9
$DIMSCALE
 40
1.0
  9
$DIMASZ
 40
0.18
  9
$DIMEXO
 40
0.0625
  9
$DIMDLI
 40
0.38
  9
$DIMRND
 40
0.0
  9
$DIMDLE
 40
0.0
  9
$DIMEXE
 40
0.18
  9
$DIMTP
 40
0.0
  9
$DIMTM
 40
0.0
  9
$DIMTXT
 40
0.18
  9
$DIMCEN
 40
0.09
  9
$DIMTSZ
 40
0.0
  9
$DIMTOL
 70
     0
  9
$DIMLIM
 70
     0
  9
$DIMTIH
 70
     1
  9
$DIMTOH
 70
     1
  9
$DIMSE1
 70
     0
  9
$DIMSE2
 70
     0
  9
$DIMTAD
 70
     0
  9
$DIMZIN
 70
     0
  9
$DIMBLK
  1

  9
$DIMASO
 70
     1
  9
$DIMSHO
 70
     1
  9
$DIMPOST
  1

  9
$DIMAPOST
  1

  9
$DIMALT
 70
     0
  9
$DIMALTD
 70
     2
  9
$DIMALTF
 40
25.4
  9
$DIMLFAC
 40
1.0
  9
$DIMTOFL
 70
     0
  9
$DIMTVP
 40
0.0
  9
$DIMTIX
 70
     0
  9
$DIMSOXD
 70
     0
  9
$DIMSAH
 70
     0
  9
$DIMBLK1
  1

  9
$DIMBLK2
  1

  9
$DIMSTYLE
  2
Standard
  9
$DIMCLRD
 70
     0
  9
$DIMCLRE
 70
     0
  9
$DIMCLRT
 70
     0
  9
$DIMTFAC
 40
1.0
  9
$DIMGAP
 40
0.09
  9
$DIMJUST
 70
     0
  9
$DIMSD1
 70
     0
  9
$DIMSD2
 70
     0
  9
$DIMTOLJ
 70
     1
  9
$DIMTZIN
 70
     0
  9
$DIMALTZ
 70
     0
  9
$DIMALTTZ
 70
     0
  9
$DIMUPT
 70
     0
  9
$DIMDEC
 70
     4
  9
$DIMTDEC
 70
     4
  9
$DIMALTU
 70
     2
  9
$DIMALTTD
 70
     2
  9
$DIMTXSTY
  7
Standard
  9
$DIMAUNIT
 70
     0
  9
$DIMADEC
 70
     0
  9
$DIMALTRND
 40
0.0
  9
$DIMAZIN
 70
     0
  9
$DIMDSEP
 70
    46
  9
$DIMATFIT
 70
     3
  9
$DIMFRAC
 70
     0
  9
$DIMLDRBLK
  1

  9
$DIMLUNIT
 70
     2
  9
$DIMLWD
 70
    -2
  9
$DIMLWE
 70
    -2
  9
$DIMTMOVE
 70
     0
  9
$DIMFXL
 40
1.0
  9
$DIMFXLON
 70
     0
  9
$DIMJOGANG
 40
0.7853981633974483
  9
$DIMTFILL
 70
     0
  9
$DIMTFILLCLR
 70
     0
  9
$DIMARCSYM
 70
     0
  9
$DIMLTYPE
  6

  9
$DIMLTEX1
  6

  9
$DIMLTEX2
  6

  9
$DIMTXTDIRECTION
 70
     0
  9
$LUNITS
 70
     2
  9
$LUPREC
 70
     4
  9
$SKETCHINC
 40
0.1
  9
$FILLETRAD
 40
0.0
  9
$AUNITS
 70
     0
  9
$AUPREC
 70
     0
  9
$MENU
  1
.
  9
$ELEVATION
 40
0.0
  9
$PELEVATION
 40
0.0
  9
$THICKNESS
 40
0.0
  9
$LIMCHECK
 70
     0
  9
$CHAMFERA
 40
0.0
  9
$CHAMFERB
 40
0.0
  9
$CHAMFERC
 40
0.0
  9
$CHAMFERD
 40
0.0
  9
$SKPOLY
 70
     0
  9
$TDCREATE
 40
2460493.299861111
  9
$TDUCREATE
 40
2460493.299861111
  9
$TDUPDATE
 40
2460493.299861111
  9
$TDUUPDATE
 40
2460493.299861111
  9
$TDINDWG
 40
0.0000000000
  9
$TDUSRTIMER
 40
0.0000000000
  9
$USRTIMER
 70
     1
  9
$ANGBASE
 50
0.0
  9
$ANGDIR
 70
     0
  9
$PDMODE
 70
     0
  9
$PDSIZE
 40
0.0
  9
$PLINEWID
 40
0.0
  9
$SPLFRAME
 70
     0
  9
$SPLINETYPE
 70
     6
  9
$SPLINESEGS
 70
     8
  9
$HANDSEED
  5
19B
  9
$SURFTAB1
 70
     6
  9
$SURFTAB2
 70
     6
  9
$SURFTYPE
 70
     6
  9
$SURFU
 70
     6
  9
$SURFV
 70
     6
  9
$UCSBASE
  2

  9
$UCSNAME
  2

  9
$UCSORG
 10
0.0
 20
0.0
 30
0.0
  9
$UCSXDIR
 10
1.0
 20
0.0
 30
0.0
  9
$UCSYDIR
 10
0.0
 20
1.0
 30
0.0
  9
$UCSORTHOREF
  2

  9
$UCSORTHOVIEW
 70
     0
  9
$UCSORGTOP
 10
0.0
 20
0.0
 30
0.0
  9
$UCSORGBOTTOM
 10
0.0
 20
0.0
 30
0.0
  9
$UCSORGLEFT
 10
0.0
 20
0.0
 30
0.0
  9
$UCSORGRIGHT
 10
0.0
 20
0.0
 30
0.0
  9
$UCSORGFRONT
 10
0.0
 20
0.0
 30
0.0
  9
$UCSORGBACK
 10
0.0
 20
0.0
 30
0.0
  9
$PUCSBASE
  2

  9
$PUCSNAME
  2

  9
$PUCSORG
 10
0.0
 20
0.0
 30
0.0
  9
$PUCSXDIR
 10
1.0
 20
0.0
 30
0.0
  9
$PUCSYDIR
 10
0.0
 20
1.0
 30
0.0
  9
$PUCSORTHOREF
  2

  9
$PUCSORTHOVIEW
 70
     0
  9
$PUCSORGTOP
 10
0.0
 20
0.0
 30
0.0
  9
$PUCSORGBOTTOM
 10
0.0
 20
0.0
 30
0.0
  9
$PUCSORGLEFT
 10
0.0
 20
0.0
 30
0.0
  9
$PUCSORGRIGHT
 10
0.0
 20
0.0
 30
0.0
  9
$PUCSORGFRONT
 10
0.0
 20
0.0
 30
0.0
  9
$PUCSORGBACK
 10
0.0
 20
0.0
 30
0.0
  9
$USERI1
 70
     0
  9
$USERI2
 70
     0
  9
$USERI3
 70
     0
  9
$USERI4
 70
     0
  9
$USERI5
 70
     0
  9
$USERR1
 40
0.0
  9
$USERR2
 40
0.0
  9
$USERR3
 40
0.0
  9
$USERR4
 40
0.0
  9
$USERR5
 40
0.0
  9
$WORLDVIEW
 70
     1
  9
$SHADEDGE
 70
     3
  9
$SHADEDIF
 70
    70
  9
$TILEMODE
 70
     1
  9
$MAXACTVP
 70
    64
  9
$PINSBASE
 10
0.0
 20
0.0
 30
0.0
  9
$PLIMCHECK
 70
     0
  9
$PEXTMIN
 10
1.000000000000000E+20
 20
1.000000000000000E+20
 30
1.000000000000000E+20
  9
$PEXTMAX
 10
-1.000000000000000E+20
 20
-1.000000000000000E+20
 30
-1.000000000000000E+20
  9
$PLIMMIN
 10
0.0
 20
0.0
  9
$PLIMMAX
 10
12.0
 20
9.0
  9
$UNITMODE
 70
     0
  9
$VISRETAIN
 70
     1
  9
$PLINEGEN
 70
     0
  9
$PSLTSCALE
 70
     1
  9
$TREEDEPTH
 70
  3020
  9
$CMLSTYLE
  2
Standard
  9
$CMLJUST
 70
     0
  9
$CMLSCALE
 40
1.0
  9
$PROXYGRAPHICS
 70
     1
  9
$MEASUREMENT
 70
     0
  9
$CELWEIGHT
370
    -1
  9
$ENDCAPS
280
     0
  9
$JOINSTYLE
280
     0
  9
$LWDISPLAY
290
     0
  9
$INSUNITS
 70
     4
  9
$HYPERLINKBASE
  1

  9
$STYLESHEET
  1

  9
$XEDIT
290
     1
  9
$CEPSNTYPE
380
     0
  9
$PSTYLEMODE
290
     1
  9
$FINGERPRINTGUID
  2
{13E6894C-D2BA-F840-8D09-77C40034A45D}
  9
$VERSIONGUID
  2
{817C75D2-8CAE-7E40-97FE-4180DFEC30AA}
  9
$EXTNAMES
290
     1
  9
$PSVPSCALE
 40
0.0
  9
$OLESTARTUP
290
     0
  9
$SORTENTS
280
   127
  9
$INDEXCTL
280
     0
  9
$HIDETEXT
280
     1
  9
$XCLIPFRAME
280
     2
  9
$HALOGAP
280
     0
  9
$OBSCOLOR
 70
   257
  9
$OBSLTYPE
280
     0
  9
$INTERSECTIONDISPLAY
280
     0
  9
$INTERSECTIONCOLOR
 70
   257
  9
$DIMASSOC
280
     2
  9
$PROJECTNAME
  1

  9
$CAMERADISPLAY
290
     0
  9
$LENSLENGTH
 40
50.0
  9
$CAMERAHEIGHT
 40
0.0
  9
$STEPSPERSEC
 40
2.0
  9
$STEPSIZE
 40
6.0
  9
$3DDWFPREC
 40
2.0
  9
$PSOLWIDTH
 40
0.25
  9
$PSOLHEIGHT
 40
4.0
  9
$LOFTANG1
 40
1.570796326794896
  9
$LOFTANG2
 40
1.570796326794896
  9
$LOFTMAG1
 40
0.0
  9
$LOFTMAG2
 40
0.0
  9
$LOFTPARAM
 70
     7
  9
$LOFTNORMALS
280
     1
  9
$LATITUDE
 40
37.795
  9
$LONGITUDE
 40
-122.394
  9
$NORTHDIRECTION
 40
0.0
  9
$TIMEZONE
 70
 -8000
  9
$LIGHTGLYPHDISPLAY
280
     1
  9
$TILEMODELIGHTSYNCH
280
     1
  9
$CMATERIAL
347
11
  9
$SOLIDHIST
280
     0
  9
$SHOWHIST
280
     1
  9
$DWFFRAME
280
     2
  9
$DGNFRAME
280
     0
  9
$REALWORLDSCALE
290
     1
  9
$INTERFERECOLOR
 62
     1
  9
$INTERFEREOBJVS
345
33
  9
$INTERFEREVPVS
346
30
  9
$CSHADOW
280
     0
  9
$SHADOWPLANELOCATION
 40
0.0
  0
ENDSEC
  0
SECTION
  2
CLASSES
  0
CLASS
  1
ACDBDICTIONARYWDFLT
  2
AcDbDictionaryWithDefault
  3
ObjectDBX Classes
 90
        0
 91
        1
280
     0
281
     0
  0
CLASS
  1
MATERIAL
  2
AcDbMaterial
  3
ObjectDBX Classes
 90
     1153
 91
        3
280
     0
281
     0
  0
CLASS
  1
VISUALSTYLE
  2
AcDbVisualStyle
  3
ObjectDBX Classes
 90
     4095
 91
       24
280
     0
281
     0
  0
CLASS
  1
SCALE
  2
AcDbScale
  3
ObjectDBX Classes
 90
     1153
 91
       17
280
     0
281
     0
  0
CLASS
  1
TABLESTYLE
  2
AcDbTableStyle
  3
ObjectDBX Classes
 90
     4095
 91
        1
280
     0
281
     0
  0
CLASS
  1
MLEADERSTYLE
  2
AcDbMLeaderStyle
  3
ACDB_MLEADERSTYLE_CLASS
 90
     4095
 91
        1
280
     0
281
     0
  0
CLASS
  1
ACDBSECTIONVIEWSTYLE
  2
AcDbSectionViewStyle
  3
ObjectDBX Classes
 90
     1025
 91
        1
280
     0
281
     0
  0
CLASS
  1
ACDBDETAILVIEWSTYLE
  2
AcDbDetailViewStyle
  3
ObjectDBX Classes
 90
     1025
 91
        1
280
     0
281
     0
  0
CLASS
  1
DICTIONARYVAR
  2
AcDbDictionaryVar
  3
ObjectDBX Classes
 90
        0
 91
        5
280
     0
281
     0
  0
CLASS
  1
CELLSTYLEMAP
  2
AcDbCellStyleMap
  3
ObjectDBX Classes
 90
     1152
 91
        1
280
     0
281
     0
  0
ENDSEC
  0
SECTION
  2
TABLES
  0
TABLE
  2
VPORT
  5
8
330
0
100
AcDbSymbolTable
 70
     1
1001
ACAD
1000
DbSaveVer
1071
      371
  0
VPORT
  5
57
330
8
100
AcDbSymbolTableRecord
100
AcDbViewportTableRecord
  2
*Active
 70
     0
 10
0.0
 20
0.0
 11
1.0
 21
1.0
 12
500.0
 22
500.0
 13
0.0
 23
0.0
 14
1.0
 24
1.0
 15
0.0
 25
0.0
 16
0.0
 26
0.0
 36
1.0
 17
0.0
 27
0.0
 37
0.0
 40
12.0
 41
1.0
 42
50.0
 43
0.0
 44
0.0
 50
0.0
 51
0.0
 71
     0
 72
   100
 73
     1
 74
     1
 75
     0
 76
     0
 77
     0
 78
     0
281
     0
 65
     1
110
0.0
120
0.0
130
0.0
111
1.0
121
0.0
131
0.0
112
0.0
122
1.0
132
0.0
 79
     0
146
0.0
 60
     3
 61
     5
292
     1
282
     1
141
0.0
142
0.0
 63
   250
421
  3355443
  0
ENDTAB
  0
TABLE
  2
LTYPE
  5
5
330
0
100
AcDbSymbolTable
 70
     1
  0
LTYPE
  5
5B
330
5
100
AcDbSymbolTableRecord
100
AcDbLinetypeTableRecord
  2
ByBlock
 70
     0
  3

 72
    65
 73
     0
 40
0.0
  0
LTYPE
  5
5C
330
5
100
AcDbSymbolTableRecord
100
AcDbLinetypeTableRecord
  2
ByLayer
 70
     0
  3

 72
    65
 73
     0
 40
0.0
  0
LTYPE
  5
5D
330
5
100
AcDbSymbolTableRecord
100
AcDbLinetypeTableRecord
  2
Continuous
 70
     0
  3
Solid line
 72
    65
 73
     0
 40
0.0
  0
ENDTAB
  0
TABLE
  2
LAYER
  5
2
330
0
100
AcDbSymbolTable
 70
     3
  0
LAYER
  5
54
330
2
100
AcDbSymbolTableRecord
100
AcDbLayerTableRecord
  2
0
 70
     0
 62
     7
  6
Continuous
370
    -3
390
F
347
21
348
0
  0
LAYER
  5
7B
330
2
100
AcDbSymbolTableRecord
100
AcDbLayerTableRecord
  2
Primus-V4 Flight Controller Outline v6 (1)_TOP
 70
     0
 62
     7
  6
Continuous
370
    -3
390
F
347
21
348
0
1001
NFusion_SketchTransform
1000
1.000000;0.000000;0.000000;0.000000;0.000000;1.000000;0.000000;0.000000;0.000000;0.000000;1.000000;0.000000;0.000000;0.000000;0.000000;1.000000
  0
LAYER
  5
111
330
2
100
AcDbSymbolTableRecord
100
AcDbLayerTableRecord
  2
Primus-V4 Flight Controller Outline v6 (1)_BOTOTM
 70
     0
 62
     7
  6
Continuous
370
    -3
390
F
347
21
348
0
1001
NFusion_SketchTransform
1000
1.000000;0.000000;0.000000;0.000000;0.000000;1.000000;0.000000;0.000000;0.000000;0.000000;1.000000;0.000000;0.000000;0.000000;0.000000;1.000000
  0
ENDTAB
  0
TABLE
  2
STYLE
  5
3
330
0
100
AcDbSymbolTable
 70
     2
  0
STYLE
  5
55
330
3
100
AcDbSymbolTableRecord
100
AcDbTextStyleTableRecord
  2
Standard
 70
     0
 40
0.0
 41
1.0
 50
0.0
 71
     0
 42
0.2
  3
txt
  4

  0
STYLE
  5
5A
330
3
100
AcDbSymbolTableRecord
100
AcDbTextStyleTableRecord
  2
Annotative
 70
     0
 40
0.0
 41
1.0
 50
0.0
 71
     0
 42
0.2
  3
txt
  4

1001
AcadAnnotative
1000
AnnotativeData
1002
{
1070
     1
1070
     1
1002
}
  0
ENDTAB
  0
TABLE
  2
VIEW
  5
6
330
0
100
AcDbSymbolTable
 70
     0
  0
ENDTAB
  0
TABLE
  2
UCS
  5
7
330
0
100
AcDbSymbolTable
 70
     0
  0
ENDTAB
  0
TABLE
  2
APPID
  5
9
330
0
100
AcDbSymbolTable
 70
     4
  0
APPID
  5
56
330
9
100
AcDbSymbolTableRecord
100
AcDbRegAppTableRecord
  2
ACAD
 70
     0
  0
APPID
  5
5E
330
9
100
AcDbSymbolTableRecord
100
AcDbRegAppTableRecord
  2
AcadAnnotative
 70
     0
  0
APPID
  5
78
330
9
100
AcDbSymbolTableRecord
100
AcDbRegAppTableRecord
  2
EDIT_IN_FUSION_ACAD_ADDIN
 70
     0
  0
APPID
  5
79
330
9
100
AcDbSymbolTableRecord
100
AcDbRegAppTableRecord
  2
NFusion_SketchTransform
 70
     0
  0
ENDTAB
  0
TABLE
  2
DIMSTYLE
  5
A
330
0
100
AcDbSymbolTable
 70
     2
100
AcDbDimStyleTable
 71
     0
  0
DIMSTYLE
105
58
330
A
100
AcDbSymbolTableRecord
100
AcDbDimStyleTableRecord
  2
Standard
 70
     0
340
55
  0
DIMSTYLE
105
59
330
A
100
AcDbSymbolTableRecord
100
AcDbDimStyleTableRecord
  2
Annotative
 70
     0
340
55
1001
AcadAnnotative
1000
AnnotativeData
1002
{
1070
     1
1070
     1
1002
}
  0
ENDTAB
  0
TABLE
  2
BLOCK_RECORD
  5
1
330
0
100
AcDbSymbolTable
 70
     2
  0
BLOCK_RECORD
  5
70
330
1
100
AcDbSymbolTableRecord
100
AcDbBlockTableRecord
  2
*Model_Space
340
73
 70
     0
280
     1
281
     0
  0
BLOCK_RECORD
  5
6C
330
1
100
AcDbSymbolTableRecord
100
AcDbBlockTableRecord
  2
*Paper_Space
340
6F
 70
     0
280
     1
281
     0
  0
BLOCK_RECORD
  5
74
330
1
100
AcDbSymbolTableRecord
100
AcDbBlockTableRecord
  2
*Paper_Space0
340
77
 70
     0
280
     1
281
     0
  0
BLOCK_RECORD
  5
7A
330
1
100
AcDbSymbolTableRecord
100
AcDbBlockTableRecord
  2
Primus-V4FlightControllerOutlinev6(1)
340
0
102
{BLKREFS
331
18B
102
}
 70
     0
280
     1
281
     0
  0
ENDTAB
  0
ENDSEC
  0
SECTION
  2
BLOCKS
  0
BLOCK
  5
71
330
70
100
AcDbEntity
  8
0
100
AcDbBlockBegin
  2
*Model_Space
 70
     0
 10
0.0
 20
0.0
 30
0.0
  3
*Model_Space
  1

  0
ENDBLK
  5
72
330
70
100
AcDbEntity
  8
0
100
AcDbBlockEnd
  0
BLOCK
  5
6D
330
6C
100
AcDbEntity
 67
     1
  8
0
100
AcDbBlockBegin
  2
*Paper_Space
 70
     0
 10
0.0
 20
0.0
 30
0.0
  3
*Paper_Space
  1

  0
ENDBLK
  5
6E
330
6C
100
AcDbEntity
 67
     1
  8
0
100
AcDbBlockEnd
  0
BLOCK
  5
75
330
74
100
AcDbEntity
 67
     1
  8
0
100
AcDbBlockBegin
  2
*Paper_Space0
 70
     0
 10
0.0
 20
0.0
 30
0.0
  3
*Paper_Space0
  1

  0
ENDBLK
  5
76
330
74
100
AcDbEntity
 67
     1
  8
0
100
AcDbBlockEnd
  0
BLOCK
  5
18C
330
7A
100
AcDbEntity
  8
0
100
AcDbBlockBegin
  2
Primus-V4FlightControllerOutlinev6(1)
 70
     0
 10
0.0
 20
0.0
 30
0.0
  3
Primus-V4FlightControllerOutlinev6(1)
  1

  0
POINT
  5
7C
330
7A
100
AcDbEntity
  8
Primus-V4 Flight Controller Outline v6 (1)_TOP
100
AcDbPoint
 10
0.0
 20
0.0
 30
0.0
  0
LINE
  5
7D
330
7A
100
AcDbEntity
  8
Primus-V4 Flight Controller Outline v6 (1)_TOP
100
AcDbLine
 10
20.17259954910725
 20
-16.1700996385701
 30
0.0
 11
20.17259954910725
 21
10.88679975666105
 31
0.0
  0
LINE
  5
7E
330
7A
100
AcDbEntity
  8
Primus-V4 Flight Controller Outline v6 (1)_TOP
100
AcDbLine
 10
20.17259954910725
 20
10.88679975666105
 30
0.0
 11
23.37459947753698
 21
14.08879968509078
 31
0.0
  0
LINE
  5
7F
330
7A
100
AcDbEntity
  8
Primus-V4 Flight Controller Outline v6 (1)_TOP
100
AcDbLine
 10
23.37459947753698
 20
14.08879968509078
 30
0.0
 11
23.37459947753698
 21
17.61099960636347
 31
0.0
  0
LINE
  5
80
330
7A
100
AcDbEntity
  8
Primus-V4 Flight Controller Outline v6 (1)_TOP
100
AcDbLine
 10
-19.85239955626428
 20
10.88679975666105
 30
0.0
 11
-19.85239955626428
 21
-16.33019963499158
 31
0.0
  0
LINE
  5
81
330
7A
100
AcDbEntity
  8
Primus-V4 Flight Controller Outline v6 (1)_TOP
100
AcDbLine
 10
-16.49029963141307
 20
-25.93619942028075
 30
0.0
 11
-13.28829970298335
 21
-22.73419949185103
 31
0.0
  0
LINE
  5
82
330
7A
100
AcDbEntity
  8
Primus-V4 Flight Controller Outline v6 (1)_TOP
100
AcDbLine
 10
23.37459947753698
 20
-23.05439948469401
 30
0.0
 11
23.37459947753698
 21
-19.37209956699982
 31
0.0
  0
LINE
  5
83
330
7A
100
AcDbEntity
  8
Primus-V4 Flight Controller Outline v6 (1)_TOP
100
AcDbLine
 10
16.81049962425604
 20
20.49279954195022
 30
0.0
 11
13.60849969582632
 21
17.2907996135205
 31
0.0
  0
LINE
  5
84
330
7A
100
AcDbEntity
  8
Primus-V4 Flight Controller Outline v6 (1)_TOP
100
AcDbLine
 10
13.60849969582632
 20
17.2907996135205
 30
0.0
 11
-13.44839969940483
 21
17.2907996135205
 31
0.0
  0
ARC
  5
85
330
7A
100
AcDbEntity
  8
Primus-V4 Flight Controller Outline v6 (1)_TOP
100
AcDbCircle
 10
-20.17259954910725
 20
19.93244955447502
 30
0.0
 40
0.5603499874752015
100
AcDbArc
 50
90.0
 51
270.0
  0
LINE
  5
86
330
7A
100
AcDbEntity
  8
Primus-V4 Flight Controller Outline v6 (1)_TOP
100
AcDbLine
 10
-23.05439948469401
 20
14.08879968509078
 30
0.0
 11
-19.85239955626428
 21
10.88679975666105
 31
0.0
  0
LINE
  5
87
330
7A
100
AcDbEntity
  8
Primus-V4 Flight Controller Outline v6 (1)_TOP
100
AcDbLine
 10
-20.17260095814709
 20
-25.93619942028075
 30
0.0
 11
-16.49029963141307
 21
-25.93619942028075
 31
0.0
  0
ARC
  5
88
330
7A
100
AcDbEntity
  8
Primus-V4 Flight Controller Outline v6 (1)_TOP
100
AcDbCircle
 10
-22.49425616719741
 20
17.61058626640627
 30
0.0
 40
0.5601433174965962
100
AcDbArc
 50
359.9999999999996
 51
179.9999999999996
  0
ARC
  5
89
330
7A
100
AcDbEntity
  8
Primus-V4 Flight Controller Outline v6 (1)_TOP
100
AcDbCircle
 10
-22.4940494972188
 20
-23.05439948469401
 30
0.0
 40
0.5603499874752015
100
AcDbArc
 50
180.0
 51
0.0
  0
ARC
  5
8A
330
7A
100
AcDbEntity
  8
Primus-V4 Flight Controller Outline v6 (1)_TOP
100
AcDbCircle
 10
-20.17260095814709
 20
-25.37585029947688
 30
0.0
 40
0.5603491208038759
100
AcDbArc
 50
90.0
 51
270.0
  0
ARC
  5
8B
330
7A
100
AcDbEntity
  8
Primus-V4 Flight Controller Outline v6 (1)_TOP
100
AcDbCircle
 10
20.49279954195022
 20
-25.37584943280555
 30
0.0
 40
0.5603499874752015
100
AcDbArc
 50
270.0
 51
90.0
  0
ARC
  5
8C
330
7A
100
AcDbEntity
  8
Primus-V4 Flight Controller Outline v6 (1)_TOP
100
AcDbCircle
 10
20.49279954195023
 20
19.93244955447502
 30
0.0
 40
0.5603499874752015
100
AcDbArc
 50
270.0
 51
90.0
  0
ARC
  5
8D
330
7A
100
AcDbEntity
  8
Primus-V4 Flight Controller Outline v6 (1)_TOP
100
AcDbCircle
 10
20.41274954373948
 20
-22.97434948648326
 30
0.0
 40
1.842889354566948
100
AcDbArc
 50
357.5104470780009
 51
272.4895529219991
  0
ARC
  5
8E
330
7A
100
AcDbEntity
  8
Primus-V4 Flight Controller Outline v6 (1)_TOP
100
AcDbCircle
 10
20.44832732072203
 20
17.56652738513528
 30
0.0
 40
1.806119786277765
100
AcDbArc
 50
88.58905917961727
 51
1.410940820382725
  0
LINE
  5
8F
330
7A
100
AcDbEntity
  8
Primus-V4 Flight Controller Outline v6 (1)_TOP
100
AcDbLine
 10
23.37459947753698
 20
-19.37209956699982
 30
0.0
 11
20.17259954910725
 21
-16.17009963857009
 31
0.0
  0
LINE
  5
90
330
7A
100
AcDbEntity
  8
Primus-V4 Flight Controller Outline v6 (1)_TOP
100
AcDbLine
 10
-23.05439948469401
 20
17.61058626640626
 30
0.0
 11
-23.05439948469401
 21
14.08879968509078
 31
0.0
  0
LINE
  5
91
330
7A
100
AcDbEntity
  8
Primus-V4 Flight Controller Outline v6 (1)_TOP
100
AcDbLine
 10
-13.44839969940484
 20
17.2907996135205
 30
0.0
 11
-16.65039962783455
 21
20.49279954195022
 31
0.0
  0
LINE
  5
92
330
7A
100
AcDbEntity
  8
Primus-V4 Flight Controller Outline v6 (1)_TOP
100
AcDbLine
 10
-13.28829970298335
 20
-22.73419949185103
 30
0.0
 11
13.76859969224781
 21
-22.73419949185103
 31
0.0
  0
LINE
  5
93
330
7A
100
AcDbEntity
  8
Primus-V4 Flight Controller Outline v6 (1)_TOP
100
AcDbLine
 10
-16.65039962783455
 20
20.49279954195022
 30
0.0
 11
-20.17259954910725
 21
20.49279954195022
 31
0.0
  0
ARC
  5
94
330
7A
100
AcDbEntity
  8
Primus-V4 Flight Controller Outline v6 (1)_TOP
100
AcDbCircle
 10
22.81424949006177
 20
-23.054399484694
 30
0.0
 40
0.5603499874752015
100
AcDbArc
 50
180.0
 51
0.0
  0
LINE
  5
95
330
7A
100
AcDbEntity
  8
Primus-V4 Flight Controller Outline v6 (1)_TOP
100
AcDbLine
 10
20.49279954195022
 20
20.49279954195022
 30
0.0
 11
16.81049962425604
 21
20.49279954195022
 31
0.0
  0
ARC
  5
96
330
7A
100
AcDbEntity
  8
Primus-V4 Flight Controller Outline v6 (1)_TOP
100
AcDbCircle
 10
22.81424949006177
 20
17.61099960636348
 30
0.0
 40
0.5603499874752015
100
AcDbArc
 50
359.9999999999996
 51
179.9999999999996
  0
ARC
  5
97
330
7A
100
AcDbEntity
  8
Primus-V4 Flight Controller Outline v6 (1)_TOP
100
AcDbCircle
 10
-20.05971047574531
 20
17.49769719304432
 30
0.0
 40
1.877798765143518
100
AcDbArc
 50
176.5534273334822
 51
93.44657266651768
  0
ARC
  5
98
330
7A
100
AcDbEntity
  8
Primus-V4 Flight Controller Outline v6 (1)_TOP
100
AcDbCircle
 10
-20.08614540003126
 20
-22.9679472232229
 30
0.0
 40
1.849575676156138
100
AcDbArc
 50
267.3208210357826
 51
182.6790767296813
  0
LINE
  5
99
330
7A
100
AcDbEntity
  8
Primus-V4 Flight Controller Outline v6 (1)_TOP
100
AcDbLine
 10
16.97059390726046
 20
-25.93619942028075
 30
0.0
 11
20.49279954195023
 21
-25.93619942028075
 31
0.0
  0
LINE
  5
9A
330
7A
100
AcDbEntity
  8
Primus-V4 Flight Controller Outline v6 (1)_TOP
100
AcDbLine
 10
-19.85239955626428
 20
-16.33019963499158
 30
0.0
 11
-23.05439948469401
 21
-19.53219956342131
 31
0.0
  0
LINE
  5
9B
330
7A
100
AcDbEntity
  8
Primus-V4 Flight Controller Outline v6 (1)_TOP
100
AcDbLine
 10
-23.05439948469401
 20
-19.53219956342131
 30
0.0
 11
-23.05439948469401
 21
-23.05439948469401
 31
0.0
  0
LINE
  5
9C
330
7A
100
AcDbEntity
  8
Primus-V4 Flight Controller Outline v6 (1)_TOP
100
AcDbLine
 10
13.76859969224781
 20
-22.73419949185103
 30
0.0
 11
16.97059390726046
 21
-25.93619942028075
 31
0.0
  0
LINE
  5
9D
330
7A
100
AcDbEntity
  8
Primus-V4 Flight Controller Outline v6 (1)_TOP
100
AcDbLine
 10
-18.88265165490831
 20
10.00000014901161
 30
0.0
 11
-14.61894242590783
 21
10.00000014901161
 31
0.0
  0
LINE
  5
9E
330
7A
100
AcDbEntity
  8
Primus-V4 Flight Controller Outline v6 (1)_TOP
100
AcDbLine
 10
-14.57558078263794
 20
-16.00000023841858
 30
0.0
 11
-14.57558078263794
 21
-19.99124281431335
 31
0.0
  0
LINE
  5
9F
330
7A
100
AcDbEntity
  8
Primus-V4 Flight Controller Outline v6 (1)_TOP
100
AcDbLine
 10
2.669030172045792
 20
-11.70813804203258
 30
0.0
 11
2.669030172045792
 21
-9.708138012230261
 31
0.0
  0
LINE
  5
A0
330
7A
100
AcDbEntity
  8
Primus-V4 Flight Controller Outline v6 (1)_TOP
100
AcDbLine
 10
15.00000022351741
 20
10.00000014901161
 30
0.0
 11
19.35418637335822
 21
10.00000014901161
 31
0.0
  0
LINE
  5
A1
330
7A
100
AcDbEntity
  8
Primus-V4 Flight Controller Outline v6 (1)_TOP
100
AcDbLine
 10
19.35418637335822
 20
10.00000014901161
 30
0.0
 11
19.35418637335822
 21
14.23273365329494
 31
0.0
  0
LINE
  5
A2
330
7A
100
AcDbEntity
  8
Primus-V4 Flight Controller Outline v6 (1)_TOP
100
AcDbLine
 10
1.843779397339792
 20
-16.75298008285293
 30
0.0
 11
1.843779397339792
 21
-20.27318136758678
 31
0.0
  0
LINE
  5
A3
330
7A
100
AcDbEntity
  8
Primus-V4 Flight Controller Outline v6 (1)_TOP
100
AcDbLine
 10
11.2571278310369
 20
-20.14348155440839
 30
0.0
 11
10.03327063874553
 21
-20.14348155440839
 31
0.0
  0
LINE
  5
A4
330
7A
100
AcDbEntity
  8
Primus-V4 Flight Controller Outline v6 (1)_TOP
100
AcDbLine
 10
4.316249958805038
 20
-19.38244396725899
 30
0.0
 11
12.31625007801431
 21
-19.38244396725899
 31
0.0
  0
LINE
  5
A5
330
7A
100
AcDbEntity
  8
Primus-V4 Flight Controller Outline v6 (1)_TOP
100
AcDbLine
 10
-8.330969991866954
 20
-11.70813804203258
 30
0.0
 11
2.669030172045792
 21
-11.70813804203258
 31
0.0
  0
LINE
  5
A6
330
7A
100
AcDbEntity
  8
Primus-V4 Flight Controller Outline v6 (1)_TOP
100
AcDbLine
 10
1.601000023856759
 20
-14.40900021471083
 30
0.0
 11
-1.601000023856759
 21
-14.40900021471083
 31
0.0
  0
LINE
  5
A7
330
7A
100
AcDbEntity
  8
Primus-V4 Flight Controller Outline v6 (1)_TOP
100
AcDbLine
 10
-2.668430367424883
 20
7.231918937016859
 30
0.0
 11
-2.668430367424883
 21
5.231918907214537
 31
0.0
  0
LINE
  5
A8
330
7A
100
AcDbEntity
  8
Primus-V4 Flight Controller Outline v6 (1)_TOP
100
AcDbLine
 10
15.00000022351741
 20
14.23273365329494
 30
0.0
 11
15.00000022351741
 21
10.00000014901161
 31
0.0
  0
LINE
  5
A9
330
7A
100
AcDbEntity
  8
Primus-V4 Flight Controller Outline v6 (1)_TOP
100
AcDbLine
 10
-8.70684688760517
 20
0.0841487289516061
 30
0.0
 11
-8.70684688760517
 21
16.40137902249108
 31
0.0
  0
LINE
  5
AA
330
7A
100
AcDbEntity
  8
Primus-V4 Flight Controller Outline v6 (1)_TOP
100
AcDbLine
 10
-1.512691595080857
 20
-16.75298008285293
 30
0.0
 11
1.843779397339792
 21
-16.75298008285293
 31
0.0
  0
LINE
  5
AB
330
7A
100
AcDbEntity
  8
Primus-V4 Flight Controller Outline v6 (1)_TOP
100
AcDbLine
 10
1.601000023856759
 20
-11.20700016699731
 30
0.0
 11
-1.601000023856759
 21
-11.20700016699731
 31
0.0
  0
LINE
  5
AC
330
7A
100
AcDbEntity
  8
Primus-V4 Flight Controller Outline v6 (1)_TOP
100
AcDbLine
 10
-1.601000023856759
 20
-9.606000143140553
 30
0.0
 11
1.601000023856759
 21
-9.606000143140553
 31
0.0
  0
LINE
  5
AD
330
7A
100
AcDbEntity
  8
Primus-V4 Flight Controller Outline v6 (1)_TOP
100
AcDbLine
 10
-6.9370687663217
 20
-1.601000023856759
 30
0.0
 11
-6.9370687663217
 21
-6.989332882193597
 31
0.0
  0
LINE
  5
AE
330
7A
100
AcDbEntity
  8
Primus-V4 Flight Controller Outline v6 (1)_TOP
100
AcDbLine
 10
-9.606000143140553
 20
-6.989332882193597
 30
0.0
 11
-9.606000143140553
 21
-1.601000023856759
 31
0.0
  0
LINE
  5
AF
330
7A
100
AcDbEntity
  8
Primus-V4 Flight Controller Outline v6 (1)_TOP
100
AcDbLine
 10
4.33156973688324
 20
5.231918907214537
 30
0.0
 11
4.33156973688324
 21
7.231918937016859
 31
0.0
  0
LINE
  5
B0
330
7A
100
AcDbEntity
  8
Primus-V4 Flight Controller Outline v6 (1)_TOP
100
AcDbLine
 10
9.11328619612874
 20
0.0841487289516061
 30
0.0
 11
-8.706846887605166
 21
0.0841487289516061
 31
0.0
  0
LINE
  5
B1
330
7A
100
AcDbEntity
  8
Primus-V4 Flight Controller Outline v6 (1)_TOP
100
AcDbLine
 10
4.33156973688324
 20
7.231918937016859
 30
0.0
 11
-2.668430367424883
 21
7.231918937016859
 31
0.0
  0
LINE
  5
B2
330
7A
100
AcDbEntity
  8
Primus-V4 Flight Controller Outline v6 (1)_TOP
100
AcDbLine
 10
10.03327063874553
 20
-20.14348155440839
 30
0.0
 11
10.03327063874553
 21
-17.95073741821965
 31
0.0
  0
LINE
  5
B3
330
7A
100
AcDbEntity
  8
Primus-V4 Flight Controller Outline v6 (1)_TOP
100
AcDbLine
 10
-2.668430367424883
 20
5.231918907214537
 30
0.0
 11
4.33156973688324
 21
5.231918907214537
 31
0.0
  0
LINE
  5
B4
330
7A
100
AcDbEntity
  8
Primus-V4 Flight Controller Outline v6 (1)_TOP
100
AcDbLine
 10
11.2571278310369
 20
-17.95073741821965
 30
0.0
 11
11.2571278310369
 21
-20.14348155440839
 31
0.0
  0
LINE
  5
B5
330
7A
100
AcDbEntity
  8
Primus-V4 Flight Controller Outline v6 (1)_TOP
100
AcDbLine
 10
4.75556726552222
 20
-15.82017919806173
 30
0.0
 11
4.75556726552222
 21
-12.82017915335826
 31
0.0
  0
LINE
  5
B6
330
7A
100
AcDbEntity
  8
Primus-V4 Flight Controller Outline v6 (1)_TOP
100
AcDbLine
 10
1.601000023856759
 20
-9.606000143140553
 30
0.0
 11
1.601000023856759
 21
-11.20700016699731
 31
0.0
  0
LINE
  5
B7
330
7A
100
AcDbEntity
  8
Primus-V4 Flight Controller Outline v6 (1)_TOP
100
AcDbLine
 10
2.669030172045792
 20
-9.708138012230261
 30
0.0
 11
-8.330969991866954
 21
-9.708138012230261
 31
0.0
  0
LINE
  5
B8
330
7A
100
AcDbEntity
  8
Primus-V4 Flight Controller Outline v6 (1)_TOP
100
AcDbLine
 10
-8.330969991866954
 20
-9.708138012230261
 30
0.0
 11
-8.330969991866954
 21
-11.70813804203258
 31
0.0
  0
LINE
  5
B9
330
7A
100
AcDbEntity
  8
Primus-V4 Flight Controller Outline v6 (1)_TOP
100
AcDbLine
 10
1.920159171916139
 20
-9.212069067261747
 30
0.0
 11
1.920159171916138
 21
-7.212069037459434
 31
0.0
  0
LINE
  5
BA
330
7A
100
AcDbEntity
  8
Primus-V4 Flight Controller Outline v6 (1)_TOP
100
AcDbLine
 10
1.920159171916138
 20
-7.212069037459434
 30
0.0
 11
-10.07984100689773
 21
-7.212069037459437
 31
0.0
  0
LINE
  5
BB
330
7A
100
AcDbEntity
  8
Primus-V4 Flight Controller Outline v6 (1)_TOP
100
AcDbLine
 10
-8.70684688760517
 20
16.40137902249108
 30
0.0
 11
9.113286196128736
 21
16.40137902249108
 31
0.0
  0
LINE
  5
BC
330
7A
100
AcDbEntity
  8
Primus-V4 Flight Controller Outline v6 (1)_TOP
100
AcDbLine
 10
-10.07984100689773
 20
-7.212069037459437
 30
0.0
 11
-10.07984100689773
 21
-9.212069067261751
 31
0.0
  0
LINE
  5
BD
330
7A
100
AcDbEntity
  8
Primus-V4 Flight Controller Outline v6 (1)_TOP
100
AcDbLine
 10
-6.97071034790901
 20
-17.70617453554411
 30
0.0
 11
-6.97071034790901
 21
-19.70617456534643
 31
0.0
  0
LINE
  5
BE
330
7A
100
AcDbEntity
  8
Primus-V4 Flight Controller Outline v6 (1)_TOP
100
AcDbLine
 10
-9.606000143140553
 20
-1.601000023856759
 30
0.0
 11
-6.937068766321699
 21
-1.601000023856759
 31
0.0
  0
LINE
  5
BF
330
7A
100
AcDbEntity
  8
Primus-V4 Flight Controller Outline v6 (1)_TOP
100
AcDbLine
 10
9.11328619612874
 20
16.40137902249108
 30
0.0
 11
9.11328619612874
 21
0.0841487289516039
 31
0.0
  0
LINE
  5
C0
330
7A
100
AcDbEntity
  8
Primus-V4 Flight Controller Outline v6 (1)_TOP
100
AcDbLine
 10
2.029289786201418
 20
-17.70617453554411
 30
0.0
 11
-6.970710347909011
 21
-17.70617453554411
 31
0.0
  0
LINE
  5
C1
330
7A
100
AcDbEntity
  8
Primus-V4 Flight Controller Outline v6 (1)_TOP
100
AcDbLine
 10
-6.97071034790901
 20
-19.70617456534643
 30
0.0
 11
2.029289786201418
 21
-19.70617456534642
 31
0.0
  0
CIRCLE
  5
C2
330
7A
100
AcDbEntity
  8
Primus-V4 Flight Controller Outline v6 (1)_TOP
100
AcDbCircle
 10
-15.0558698144155
 20
6.601163067448202
 30
0.0
 40
0.330240372519485
  0
CIRCLE
  5
C3
330
7A
100
AcDbEntity
  8
Primus-V4 Flight Controller Outline v6 (1)_TOP
100
AcDbCircle
 10
15.39915587629886
 20
7.830649947115424
 30
0.0
 40
0.3300000000000003
  0
LINE
  5
C4
330
7A
100
AcDbEntity
  8
Primus-V4 Flight Controller Outline v6 (1)_TOP
100
AcDbLine
 10
-1.601000023856759
 20
-11.88588086232602
 30
0.0
 11
1.601000023856759
 21
-11.88588086232602
 31
0.0
  0
LINE
  5
C5
330
7A
100
AcDbEntity
  8
Primus-V4 Flight Controller Outline v6 (1)_TOP
100
AcDbLine
 10
12.31625007801431
 20
-16.38244392255551
 30
0.0
 11
4.316249958805038
 21
-16.38244392255551
 31
0.0
  0
LINE
  5
C6
330
7A
100
AcDbEntity
  8
Primus-V4 Flight Controller Outline v6 (1)_TOP
100
AcDbLine
 10
1.843779397339792
 20
-20.27318136758678
 30
0.0
 11
-1.512691595080858
 21
-20.27318136758678
 31
0.0
  0
LINE
  5
C7
330
7A
100
AcDbEntity
  8
Primus-V4 Flight Controller Outline v6 (1)_TOP
100
AcDbLine
 10
4.75556726552222
 20
-12.82017915335826
 30
0.0
 11
-8.244432928192804
 21
-12.82017915335826
 31
0.0
  0
LINE
  5
C8
330
7A
100
AcDbEntity
  8
Primus-V4 Flight Controller Outline v6 (1)_TOP
100
AcDbLine
 10
-8.244432928192804
 20
-15.82017919806173
 30
0.0
 11
4.75556726552222
 21
-15.82017919806173
 31
0.0
  0
LINE
  5
C9
330
7A
100
AcDbEntity
  8
Primus-V4 Flight Controller Outline v6 (1)_TOP
100
AcDbLine
 10
-1.512691595080857
 20
-20.27318136758678
 30
0.0
 11
-1.512691595080857
 21
-16.75298008285293
 31
0.0
  0
LINE
  5
CA
330
7A
100
AcDbEntity
  8
Primus-V4 Flight Controller Outline v6 (1)_TOP
100
AcDbLine
 10
4.316249958805038
 20
-16.38244392255551
 30
0.0
 11
4.316249958805038
 21
-19.38244396725899
 31
0.0
  0
LINE
  5
CB
330
7A
100
AcDbEntity
  8
Primus-V4 Flight Controller Outline v6 (1)_TOP
100
AcDbLine
 10
-10.07984100689773
 20
-9.212069067261749
 30
0.0
 11
1.920159171916138
 21
-9.212069067261747
 31
0.0
  0
CIRCLE
  5
CC
330
7A
100
AcDbEntity
  8
Primus-V4 Flight Controller Outline v6 (1)_TOP
100
AcDbCircle
 10
15.39915587629886
 20
6.601163067448202
 30
0.0
 40
0.3300000000000006
  0
LINE
  5
CD
330
7A
100
AcDbEntity
  8
Primus-V4 Flight Controller Outline v6 (1)_TOP
100
AcDbLine
 10
-8.244432928192804
 20
-12.82017915335826
 30
0.0
 11
-8.244432928192804
 21
-15.82017919806173
 31
0.0
  0
LINE
  5
CE
330
7A
100
AcDbEntity
  8
Primus-V4 Flight Controller Outline v6 (1)_TOP
100
AcDbLine
 10
-14.61894242590783
 20
14.23273365329494
 30
0.0
 11
-18.88265165490831
 21
14.23273365329494
 31
0.0
  0
LINE
  5
CF
330
7A
100
AcDbEntity
  8
Primus-V4 Flight Controller Outline v6 (1)_TOP
100
AcDbLine
 10
-18.88265165490831
 20
14.23273365329494
 30
0.0
 11
-18.88265165490831
 21
10.00000014901161
 31
0.0
  0
LINE
  5
D0
330
7A
100
AcDbEntity
  8
Primus-V4 Flight Controller Outline v6 (1)_TOP
100
AcDbLine
 10
-14.61894242590783
 20
10.00000014901161
 30
0.0
 11
-14.61894242590783
 21
14.23273365329494
 31
0.0
  0
LINE
  5
D1
330
7A
100
AcDbEntity
  8
Primus-V4 Flight Controller Outline v6 (1)_TOP
100
AcDbLine
 10
-18.83958078263794
 20
-16.00000023841858
 30
0.0
 11
-14.57558078263794
 21
-16.00000023841858
 31
0.0
  0
LINE
  5
D2
330
7A
100
AcDbEntity
  8
Primus-V4 Flight Controller Outline v6 (1)_TOP
100
AcDbLine
 10
-18.83958078263794
 20
-19.99124281431335
 30
0.0
 11
-18.83958078263794
 21
-16.00000023841858
 31
0.0
  0
LINE
  5
D3
330
7A
100
AcDbEntity
  8
Primus-V4 Flight Controller Outline v6 (1)_TOP
100
AcDbLine
 10
19.35418637335822
 20
14.23273365329494
 30
0.0
 11
15.00000022351741
 21
14.23273365329494
 31
0.0
  0
LINE
  5
D4
330
7A
100
AcDbEntity
  8
Primus-V4 Flight Controller Outline v6 (1)_TOP
100
AcDbLine
 10
-1.601000023856759
 20
-14.40900021471083
 30
0.0
 11
-1.601000023856759
 21
-11.88588086232602
 31
0.0
  0
LINE
  5
D5
330
7A
100
AcDbEntity
  8
Primus-V4 Flight Controller Outline v6 (1)_TOP
100
AcDbLine
 10
10.03327063874553
 20
-17.95073741821965
 30
0.0
 11
11.2571278310369
 21
-17.95073741821965
 31
0.0
  0
LINE
  5
D6
330
7A
100
AcDbEntity
  8
Primus-V4 Flight Controller Outline v6 (1)_TOP
100
AcDbLine
 10
12.31625007801431
 20
-19.38244396725899
 30
0.0
 11
12.31625007801431
 21
-16.38244392255551
 31
0.0
  0
CIRCLE
  5
D7
330
7A
100
AcDbEntity
  8
Primus-V4 Flight Controller Outline v6 (1)_TOP
100
AcDbCircle
 10
-15.0558698144155
 20
7.830649947115424
 30
0.0
 40
0.3300000000000002
  0
LINE
  5
D8
330
7A
100
AcDbEntity
  8
Primus-V4 Flight Controller Outline v6 (1)_TOP
100
AcDbLine
 10
-1.601000023856759
 20
-11.20700016699731
 30
0.0
 11
-1.601000023856759
 21
-9.606000143140555
 31
0.0
  0
LINE
  5
D9
330
7A
100
AcDbEntity
  8
Primus-V4 Flight Controller Outline v6 (1)_TOP
100
AcDbLine
 10
1.601000023856759
 20
-11.88588086232602
 30
0.0
 11
1.601000023856759
 21
-14.40900021471083
 31
0.0
  0
LINE
  5
DA
330
7A
100
AcDbEntity
  8
Primus-V4 Flight Controller Outline v6 (1)_TOP
100
AcDbLine
 10
2.029289786201418
 20
-19.70617456534642
 30
0.0
 11
2.029289786201418
 21
-17.70617453554411
 31
0.0
  0
LINE
  5
DB
330
7A
100
AcDbEntity
  8
Primus-V4 Flight Controller Outline v6 (1)_TOP
100
AcDbLine
 10
-14.57558078263794
 20
-19.99124281431335
 30
0.0
 11
-18.83958078263794
 21
-19.99124281431335
 31
0.0
  0
LINE
  5
DC
330
7A
100
AcDbEntity
  8
Primus-V4 Flight Controller Outline v6 (1)_TOP
100
AcDbLine
 10
-6.9370687663217
 20
-6.989332882193597
 30
0.0
 11
-9.606000143140555
 21
-6.989332882193597
 31
0.0
  0
LINE
  5
DD
330
7A
100
AcDbEntity
  8
Primus-V4 Flight Controller Outline v6 (1)_TOP
100
AcDbLine
 10
-18.4286908959075
 20
12.79520400052517
 30
0.0
 11
-18.4286908959075
 21
10.79520397072285
 31
0.0
  0
LINE
  5
DE
330
7A
100
AcDbEntity
  8
Primus-V4 Flight Controller Outline v6 (1)_TOP
100
AcDbLine
 10
19.35418637335822
 20
-15.72732753680589
 30
0.0
 11
14.98799335076444
 21
-15.72732753680589
 31
0.0
  0
LINE
  5
DF
330
7A
100
AcDbEntity
  8
Primus-V4 Flight Controller Outline v6 (1)_TOP
100
AcDbLine
 10
14.98799335076444
 20
-20.14348155440839
 30
0.0
 11
19.35418637335822
 21
-20.14348155440839
 31
0.0
  0
LINE
  5
E0
330
7A
100
AcDbEntity
  8
Primus-V4 Flight Controller Outline v6 (1)_TOP
100
AcDbLine
 10
15.24663950851797
 20
-19.63144750056988
 30
0.0
 11
24.24663964262838
 21
-19.63144750056988
 31
0.0
  0
LINE
  5
E1
330
7A
100
AcDbEntity
  8
Primus-V4 Flight Controller Outline v6 (1)_TOP
100
AcDbLine
 10
19.68297028978953
 20
-20.14348155440839
 30
0.0
 11
19.71198218113071
 21
14.00612288199471
 31
0.0
  0
ARC
  5
E2
330
7A
100
AcDbEntity
  8
Primus-V4 Flight Controller Outline v6 (1)_TOP
100
AcDbCircle
 10
-16.6188750540283
 20
-3.956774401702744
 30
0.0
 40
1.25
100
AcDbArc
 50
179.9827287384774
 51
1.766706893392029
  0
LINE
  5
E3
330
7A
100
AcDbEntity
  8
Primus-V4 Flight Controller Outline v6 (1)_TOP
100
AcDbLine
 10
-18.50792696744719
 20
-19.39373928595046
 30
0.0
 11
-9.507926833336821
 21
-19.39373928595047
 31
0.0
  0
CIRCLE
  5
E4
330
7A
100
AcDbEntity
  8
Primus-V4 Flight Controller Outline v6 (1)_TOP
100
AcDbCircle
 10
-3.287045182613664
 20
-3.149192744827489
 30
0.0
 40
0.4000000000000001
  0
LINE
  5
E5
330
7A
100
AcDbEntity
  8
Primus-V4 Flight Controller Outline v6 (1)_TOP
100
AcDbLine
 10
-13.80236738812217
 20
-4.495950238084563
 30
0.0
 11
-12.69753745611557
 21
-4.495950238084562
 31
0.0
  0
ARC
  5
E6
330
7A
100
AcDbEntity
  8
Primus-V4 Flight Controller Outline v6 (1)_TOP
100
AcDbCircle
 10
-13.80236738812217
 20
-4.995950238084562
 30
0.0
 40
0.4999999999999993
100
AcDbArc
 50
90.0
 51
270.0
  0
ARC
  5
E7
330
7A
100
AcDbEntity
  8
Primus-V4 Flight Controller Outline v6 (1)_TOP
100
AcDbCircle
 10
5.825429635955446
 20
-22.17775495714072
 30
0.0
 40
0.5564445347103196
100
AcDbArc
 50
89.65288257305017
 51
269.9999999999995
  0
LINE
  5
E8
330
7A
100
AcDbEntity
  8
Primus-V4 Flight Controller Outline v6 (1)_TOP
100
AcDbLine
 10
24.63827197341283
 20
12.71231601333483
 30
0.0
 11
15.63827183930244
 21
12.71231601333483
 31
0.0
  0
LINE
  5
E9
330
7A
100
AcDbEntity
  8
Primus-V4 Flight Controller Outline v6 (1)_TOP
100
AcDbLine
 10
24.24663964262838
 20
-17.63144747076756
 30
0.0
 11
15.24663950851797
 21
-17.63144747076756
 31
0.0
  0
LINE
  5
EA
330
7A
100
AcDbEntity
  8
Primus-V4 Flight Controller Outline v6 (1)_TOP
100
AcDbLine
 10
-17.86828085854089
 20
-1.985398629943924
 30
0.0
 11
-17.86887499723687
 21
-3.956397601234022
 31
0.0
  0
CIRCLE
  5
EB
330
7A
100
AcDbEntity
  8
Primus-V4 Flight Controller Outline v6 (1)_TOP
100
AcDbCircle
 10
-15.0558698144155
 20
-13.79997402726339
 30
0.0
 40
0.33
  0
LINE
  5
EC
330
7A
100
AcDbEntity
  8
Primus-V4 Flight Controller Outline v6 (1)_TOP
100
AcDbLine
 10
-18.4286908959075
 20
10.79520397072285
 30
0.0
 11
-9.42869076179708
 21
10.79520397072285
 31
0.0
  0
LINE
  5
ED
330
7A
100
AcDbEntity
  8
Primus-V4 Flight Controller Outline v6 (1)_TOP
100
AcDbLine
 10
19.35418637335822
 20
-20.14348155440839
 30
0.0
 11
19.35418637335822
 21
-15.72732753680589
 31
0.0
  0
LINE
  5
EE
330
7A
100
AcDbEntity
  8
Primus-V4 Flight Controller Outline v6 (1)_TOP
100
AcDbLine
 10
-15.36946924951572
 20
-1.985398629943924
 30
0.0
 11
-15.36946924951572
 21
-3.995311859458404
 31
0.0
  0
LINE
  5
EF
330
7A
100
AcDbEntity
  8
Primus-V4 Flight Controller Outline v6 (1)_TOP
100
AcDbLine
 10
-19.37723223012869
 20
14.34001019531569
 30
0.0
 11
-19.37723223012869
 21
-19.50000029057264
 31
0.0
  0
CIRCLE
  5
F0
330
7A
100
AcDbEntity
  8
Primus-V4 Flight Controller Outline v6 (1)_TOP
100
AcDbCircle
 10
3.679754343562586
 20
-3.149192744827489
 30
0.0
 40
0.4000000000000001
  0
CIRCLE
  5
F1
330
7A
100
AcDbEntity
  8
Primus-V4 Flight Controller Outline v6 (1)_TOP
100
AcDbCircle
 10
15.39915587629886
 20
-12.54027210356574
 30
0.0
 40
0.3299999999999994
  0
CIRCLE
  5
F2
330
7A
100
AcDbEntity
  8
Primus-V4 Flight Controller Outline v6 (1)_TOP
100
AcDbCircle
 10
15.39915587629886
 20
-13.79997402726339
 30
0.0
 40
0.329999999999999
  0
LINE
  5
F3
330
7A
100
AcDbEntity
  8
Primus-V4 Flight Controller Outline v6 (1)_TOP
100
AcDbLine
 10
-9.42869076179708
 20
12.79520400052517
 30
0.0
 11
-18.4286908959075
 21
12.79520400052517
 31
0.0
  0
ARC
  5
F4
330
7A
100
AcDbEntity
  8
Primus-V4 Flight Controller Outline v6 (1)_TOP
100
AcDbCircle
 10
-13.80236738812217
 20
-1.045950238084562
 30
0.0
 40
0.4999999999999992
100
AcDbArc
 50
90.0
 51
270.0
  0
ARC
  5
F5
330
7A
100
AcDbEntity
  8
Primus-V4 Flight Controller Outline v6 (1)_TOP
100
AcDbCircle
 10
-4.724299020097541
 20
-22.17764052483681
 30
0.0
 40
0.556558967014218
100
AcDbArc
 50
270.0
 51
91.67944527737867
  0
ARC
  5
F6
330
7A
100
AcDbEntity
  8
Primus-V4 Flight Controller Outline v6 (1)_TOP
100
AcDbCircle
 10
9.75757904066295
 20
16.91806089151676
 30
0.0
 40
0.3727387220037359
100
AcDbArc
 50
89.99999999999973
 51
270.0728309439182
  0
CIRCLE
  5
F7
330
7A
100
AcDbEntity
  8
Primus-V4 Flight Controller Outline v6 (1)_TOP
100
AcDbCircle
 10
-15.0558698144155
 20
-12.54027210356574
 30
0.0
 40
0.3299999999999992
  0
LINE
  5
F8
330
7A
100
AcDbEntity
  8
Primus-V4 Flight Controller Outline v6 (1)_TOP
100
AcDbLine
 10
17.31345636300326
 20
-21.62132063413229
 30
0.0
 11
19.68297028978954
 21
-20.14348155440839
 31
0.0
  0
LINE
  5
F9
330
7A
100
AcDbEntity
  8
Primus-V4 Flight Controller Outline v6 (1)_TOP
100
AcDbLine
 10
-9.507926833336819
 20
-19.39373928595047
 30
0.0
 11
-9.507926833336819
 21
-17.39373925614816
 31
0.0
  0
LINE
  5
FA
330
7A
100
AcDbEntity
  8
Primus-V4 Flight Controller Outline v6 (1)_TOP
100
AcDbLine
 10
-9.933749405553871
 20
16.54532247064791
 30
0.0
 11
-16.16996204140273
 21
16.54532247064791
 31
0.0
  0
LINE
  5
FB
330
7A
100
AcDbEntity
  8
Primus-V4 Flight Controller Outline v6 (1)_TOP
100
AcDbLine
 10
-13.80236738812217
 20
-1.545950238084561
 30
0.0
 11
-12.69753745611557
 21
-1.545950238084562
 31
0.0
  0
ARC
  5
FC
330
7A
100
AcDbEntity
  8
Primus-V4 Flight Controller Outline v6 (1)_TOP
100
AcDbCircle
 10
-12.69753745611557
 20
-1.045950238084562
 30
0.0
 40
0.5
100
AcDbArc
 50
270.0
 51
90.0
  0
LINE
  5
FD
330
7A
100
AcDbEntity
  8
Primus-V4 Flight Controller Outline v6 (1)_TOP
100
AcDbLine
 10
14.98799335076444
 20
-15.72732753680589
 30
0.0
 11
14.98799335076444
 21
-20.14348155440839
 31
0.0
  0
LINE
  5
FE
330
7A
100
AcDbEntity
  8
Primus-V4 Flight Controller Outline v6 (1)_TOP
100
AcDbLine
 10
-16.16996204140273
 20
16.54532247064791
 30
0.0
 11
-19.37723223012868
 21
14.34001019531569
 31
0.0
  0
LINE
  5
FF
330
7A
100
AcDbEntity
  8
Primus-V4 Flight Controller Outline v6 (1)_TOP
100
AcDbLine
 10
-13.80236738812217
 20
-0.5459502380845632
 30
0.0
 11
-12.69753745611557
 21
-0.5459502380845624
 31
0.0
  0
LINE
  5
100
330
7A
100
AcDbEntity
  8
Primus-V4 Flight Controller Outline v6 (1)_TOP
100
AcDbLine
 10
24.63827197341283
 20
10.71231598353252
 30
0.0
 11
24.63827197341283
 21
12.71231601333483
 31
0.0
  0
LINE
  5
101
330
7A
100
AcDbEntity
  8
Primus-V4 Flight Controller Outline v6 (1)_TOP
100
AcDbLine
 10
15.63827183930244
 20
10.71231598353252
 30
0.0
 11
24.63827197341283
 21
10.71231598353252
 31
0.0
  0
LINE
  5
102
330
7A
100
AcDbEntity
  8
Primus-V4 Flight Controller Outline v6 (1)_TOP
100
AcDbLine
 10
-18.50792696744719
 20
-17.39373925614816
 30
0.0
 11
-18.50792696744719
 21
-19.39373928595047
 31
0.0
  0
LINE
  5
103
330
7A
100
AcDbEntity
  8
Primus-V4 Flight Controller Outline v6 (1)_TOP
100
AcDbLine
 10
-9.507926833336819
 20
-17.39373925614816
 30
0.0
 11
-18.50792696744719
 21
-17.39373925614815
 31
0.0
  0
LINE
  5
104
330
7A
100
AcDbEntity
  8
Primus-V4 Flight Controller Outline v6 (1)_TOP
100
AcDbLine
 10
-19.37723223012869
 20
-19.50000029057264
 30
0.0
 11
-17.25591188656905
 21
-21.62132063413229
 31
0.0
  0
LINE
  5
105
330
7A
100
AcDbEntity
  8
Primus-V4 Flight Controller Outline v6 (1)_TOP
100
AcDbLine
 10
24.24663964262838
 20
-19.63144750056988
 30
0.0
 11
24.24663964262838
 21
-17.63144747076756
 31
0.0
  0
LINE
  5
106
330
7A
100
AcDbEntity
  8
Primus-V4 Flight Controller Outline v6 (1)_TOP
100
AcDbLine
 10
15.24663950851797
 20
-17.63144747076757
 30
0.0
 11
15.24663950851797
 21
-19.63144750056988
 31
0.0
  0
LINE
  5
107
330
7A
100
AcDbEntity
  8
Primus-V4 Flight Controller Outline v6 (1)_TOP
100
AcDbLine
 10
-9.42869076179708
 20
10.79520397072285
 30
0.0
 11
-9.42869076179708
 21
12.79520400052517
 31
0.0
  0
LINE
  5
108
330
7A
100
AcDbEntity
  8
Primus-V4 Flight Controller Outline v6 (1)_TOP
100
AcDbLine
 10
19.71198218113071
 20
14.00612288199471
 30
0.0
 11
17.17709329843782
 21
16.54532247064791
 31
0.0
  0
LINE
  5
109
330
7A
100
AcDbEntity
  8
Primus-V4 Flight Controller Outline v6 (1)_TOP
100
AcDbLine
 10
-13.80236738812217
 20
-5.495950238084561
 30
0.0
 11
-12.69753745611557
 21
-5.495950238084562
 31
0.0
  0
LINE
  5
10A
330
7A
100
AcDbEntity
  8
Primus-V4 Flight Controller Outline v6 (1)_TOP
100
AcDbLine
 10
5.82205852528697
 20
-21.62132063413229
 30
0.0
 11
17.31345636300326
 21
-21.62132063413229
 31
0.0
  0
ARC
  5
10B
330
7A
100
AcDbEntity
  8
Primus-V4 Flight Controller Outline v6 (1)_TOP
100
AcDbCircle
 10
-9.933749405553868
 20
16.91806104208421
 30
0.0
 40
0.372738571436293
100
AcDbArc
 50
269.9999999999994
 51
89.99999999999944
  0
LINE
  5
10C
330
7A
100
AcDbEntity
  8
Primus-V4 Flight Controller Outline v6 (1)_TOP
100
AcDbLine
 10
15.63827183930244
 20
12.71231601333483
 30
0.0
 11
15.63827183930244
 21
10.71231598353252
 31
0.0
  0
ARC
  5
10D
330
7A
100
AcDbEntity
  8
Primus-V4 Flight Controller Outline v6 (1)_TOP
100
AcDbCircle
 10
-16.6188750540283
 20
-2.023936087699715
 30
0.0
 40
1.250000000000003
100
AcDbArc
 50
358.2332931066032
 51
181.7321643703518
  0
ARC
  5
10E
330
7A
100
AcDbEntity
  8
Primus-V4 Flight Controller Outline v6 (1)_TOP
100
AcDbCircle
 10
-12.69753745611557
 20
-4.995950238084562
 30
0.0
 40
0.5
100
AcDbArc
 50
270.0
 51
90.0
  0
LINE
  5
10F
330
7A
100
AcDbEntity
  8
Primus-V4 Flight Controller Outline v6 (1)_TOP
100
AcDbLine
 10
17.17709329843782
 20
16.54532247064791
 30
0.0
 11
9.757105237779132
 21
16.54532247064791
 31
0.0
  0
LINE
  5
110
330
7A
100
AcDbEntity
  8
Primus-V4 Flight Controller Outline v6 (1)_TOP
100
AcDbLine
 10
-17.25591188656904
 20
-21.62132063413229
 30
0.0
 11
-4.707987583298868
 21
-21.62132063413229
 31
0.0
  0
POINT
  5
112
330
7A
100
AcDbEntity
  8
Primus-V4 Flight Controller Outline v6 (1)_BOTOTM
100
AcDbPoint
 10
0.0
 20
0.0
 30
0.0
  0
LINE
  5
113
330
7A
100
AcDbEntity
  8
Primus-V4 Flight Controller Outline v6 (1)_BOTOTM
100
AcDbLine
 10
20.17259954910725
 20
10.88679975666105
 30
0.0
 11
23.37459947753698
 21
14.08879968509078
 31
0.0
  0
LINE
  5
114
330
7A
100
AcDbEntity
  8
Primus-V4 Flight Controller Outline v6 (1)_BOTOTM
100
AcDbLine
 10
23.37459947753698
 20
14.08879968509078
 30
0.0
 11
23.37459947753698
 21
17.61099960636347
 31
0.0
  0
LINE
  5
115
330
7A
100
AcDbEntity
  8
Primus-V4 Flight Controller Outline v6 (1)_BOTOTM
100
AcDbLine
 10
16.81049962425604
 20
20.49279954195022
 30
0.0
 11
13.60849969582632
 21
17.2907996135205
 31
0.0
  0
LINE
  5
116
330
7A
100
AcDbEntity
  8
Primus-V4 Flight Controller Outline v6 (1)_BOTOTM
100
AcDbLine
 10
13.60849969582632
 20
17.2907996135205
 30
0.0
 11
9.125699796024708
 21
17.2907996135205
 31
0.0
  0
LINE
  5
117
330
7A
100
AcDbEntity
  8
Primus-V4 Flight Controller Outline v6 (1)_BOTOTM
100
AcDbLine
 10
6.724199849702418
 20
16.01000023856759
 30
0.0
 11
-6.224511168161973
 21
16.01000023856759
 31
0.0
  0
LINE
  5
118
330
7A
100
AcDbEntity
  8
Primus-V4 Flight Controller Outline v6 (1)_BOTOTM
100
AcDbLine
 10
-6.224511168161973
 20
16.01000023856759
 30
0.0
 11
-6.224511168161973
 21
19.69229955984279
 31
0.0
  0
LINE
  5
119
330
7A
100
AcDbEntity
  8
Primus-V4 Flight Controller Outline v6 (1)_BOTOTM
100
AcDbLine
 10
-6.224511168161973
 20
19.69229955984279
 30
0.0
 11
-8.626011114484265
 21
17.2907996135205
 31
0.0
  0
LINE
  5
11A
330
7A
100
AcDbEntity
  8
Primus-V4 Flight Controller Outline v6 (1)_BOTOTM
100
AcDbLine
 10
9.12569979602471
 20
17.2907996135205
 30
0.0
 11
6.724199849702418
 21
19.69229955984279
 31
0.0
  0
LINE
  5
11B
330
7A
100
AcDbEntity
  8
Primus-V4 Flight Controller Outline v6 (1)_BOTOTM
100
AcDbLine
 10
20.49279954195022
 20
20.49279954195022
 30
0.0
 11
16.81049962425604
 21
20.49279954195022
 31
0.0
  0
LINE
  5
11C
330
7A
100
AcDbEntity
  8
Primus-V4 Flight Controller Outline v6 (1)_BOTOTM
100
AcDbLine
 10
6.724199849702418
 20
19.69229955984279
 30
0.0
 11
6.724199849702418
 21
16.01000023856759
 31
0.0
  0
LINE
  5
11D
330
7A
100
AcDbEntity
  8
Primus-V4 Flight Controller Outline v6 (1)_BOTOTM
100
AcDbLine
 10
-8.626011114484265
 20
17.2907996135205
 30
0.0
 11
-13.44839969940484
 21
17.2907996135205
 31
0.0
  0
LINE
  5
11E
330
7A
100
AcDbEntity
  8
Primus-V4 Flight Controller Outline v6 (1)_BOTOTM
100
AcDbLine
 10
-13.44839969940484
 20
17.2907996135205
 30
0.0
 11
-16.65039962783456
 21
20.49279954195022
 31
0.0
  0
LINE
  5
11F
330
7A
100
AcDbEntity
  8
Primus-V4 Flight Controller Outline v6 (1)_BOTOTM
100
AcDbLine
 10
-3.554488410584832
 20
-18.20651970860813
 30
0.0
 11
-3.554488410584832
 21
-22.73419949185103
 31
0.0
  0
LINE
  5
120
330
7A
100
AcDbEntity
  8
Primus-V4 Flight Controller Outline v6 (1)_BOTOTM
100
AcDbLine
 10
-7.080936417801172
 20
8.359388612421621
 30
0.0
 11
-7.080936417801172
 21
5.185585405926915
 31
0.0
  0
LINE
  5
121
330
7A
100
AcDbEntity
  8
Primus-V4 Flight Controller Outline v6 (1)_BOTOTM
100
AcDbLine
 10
15.31200842802257
 20
2.305652866700238
 30
0.0
 11
15.31200842802257
 21
-7.744723953866325
 31
0.0
  0
ARC
  5
122
330
7A
100
AcDbEntity
  8
Primus-V4 Flight Controller Outline v6 (1)_BOTOTM
100
AcDbCircle
 10
22.81424949006177
 20
17.61099960636347
 30
0.0
 40
0.5603499874752015
100
AcDbArc
 50
0.0000000000003633
 51
180.0000000000004
  0
LINE
  5
123
330
7A
100
AcDbEntity
  8
Primus-V4 Flight Controller Outline v6 (1)_BOTOTM
100
AcDbLine
 10
-23.05439948469401
 20
14.08879968509078
 30
0.0
 11
-19.85239955626428
 21
10.88679975666105
 31
0.0
  0
LINE
  5
124
330
7A
100
AcDbEntity
  8
Primus-V4 Flight Controller Outline v6 (1)_BOTOTM
100
AcDbLine
 10
20.17259954910725
 20
-16.1700996385701
 30
0.0
 11
23.37459947753698
 21
-19.37209956699982
 31
0.0
  0
LINE
  5
125
330
7A
100
AcDbEntity
  8
Primus-V4 Flight Controller Outline v6 (1)_BOTOTM
100
AcDbLine
 10
13.76859969224781
 20
-22.73419949185103
 30
0.0
 11
-13.28830063116038
 21
-22.73419949185103
 31
0.0
  0
LINE
  5
126
330
7A
100
AcDbEntity
  8
Primus-V4 Flight Controller Outline v6 (1)_BOTOTM
100
AcDbLine
 10
-23.05439948469401
 20
-19.53219956342131
 30
0.0
 11
-23.05439948469401
 21
-23.05439948469401
 31
0.0
  0
LINE
  5
127
330
7A
100
AcDbEntity
  8
Primus-V4 Flight Controller Outline v6 (1)_BOTOTM
100
AcDbLine
 10
-19.85239955626428
 20
10.88679975666105
 30
0.0
 11
-19.85239955626428
 21
-16.33019963499158
 31
0.0
  0
LINE
  5
128
330
7A
100
AcDbEntity
  8
Primus-V4 Flight Controller Outline v6 (1)_BOTOTM
100
AcDbLine
 10
3.968600671476687
 20
-22.73419949185103
 30
0.0
 11
3.968600671476687
 21
-18.20651970860813
 31
0.0
  0
ARC
  5
129
330
7A
100
AcDbEntity
  8
Primus-V4 Flight Controller Outline v6 (1)_BOTOTM
100
AcDbCircle
 10
-20.17259954910725
 20
-25.37585033861687
 30
0.0
 40
0.5603508932865225
100
AcDbArc
 50
90.00000000000035
 51
270.0000000000003
  0
ARC
  5
12A
330
7A
100
AcDbEntity
  8
Primus-V4 Flight Controller Outline v6 (1)_BOTOTM
100
AcDbCircle
 10
20.49280097335576
 20
-25.37585029947688
 30
0.0
 40
0.5603491208038759
100
AcDbArc
 50
270.0000000000003
 51
90.00000000000035
  0
LINE
  5
12B
330
7A
100
AcDbEntity
  8
Primus-V4 Flight Controller Outline v6 (1)_BOTOTM
100
AcDbLine
 10
20.49280097335577
 20
-25.93619942028075
 30
0.0
 11
16.97059962067753
 21
-25.93619942028075
 31
0.0
  0
LINE
  5
12C
330
7A
100
AcDbEntity
  8
Primus-V4 Flight Controller Outline v6 (1)_BOTOTM
100
AcDbLine
 10
16.97059962067753
 20
-25.93619942028075
 30
0.0
 11
13.76859969224781
 21
-22.73419949185103
 31
0.0
  0
LINE
  5
12D
330
7A
100
AcDbEntity
  8
Primus-V4 Flight Controller Outline v6 (1)_BOTOTM
100
AcDbLine
 10
-4.553135593626437
 20
2.599523533968263
 30
0.0
 11
4.732664406373562
 21
2.599523533968263
 31
0.0
  0
LINE
  5
12E
330
7A
100
AcDbEntity
  8
Primus-V4 Flight Controller Outline v6 (1)_BOTOTM
100
AcDbLine
 10
8.117867315588167
 20
-1.093396208911245
 30
0.0
 11
19.80136961752328
 21
-1.093396208911245
 31
0.0
  0
LINE
  5
12F
330
7A
100
AcDbEntity
  8
Primus-V4 Flight Controller Outline v6 (1)_BOTOTM
100
AcDbLine
 10
-14.89064748021041
 20
-14.34185835733201
 30
0.0
 11
-6.890647361001134
 21
-14.34185835733201
 31
0.0
  0
LINE
  5
130
330
7A
100
AcDbEntity
  8
Primus-V4 Flight Controller Outline v6 (1)_BOTOTM
100
AcDbLine
 10
-6.890647361001134
 20
-14.34185835733201
 30
0.0
 11
-6.890647361001134
 21
-16.34185838713434
 31
0.0
  0
ARC
  5
131
330
7A
100
AcDbEntity
  8
Primus-V4 Flight Controller Outline v6 (1)_BOTOTM
100
AcDbCircle
 10
-20.05589426730488
 20
17.4942943245611
 30
0.0
 40
1.881428354025447
100
AcDbArc
 50
176.4436510974207
 51
93.55634890257919
  0
LINE
  5
132
330
7A
100
AcDbEntity
  8
Primus-V4 Flight Controller Outline v6 (1)_BOTOTM
100
AcDbLine
 10
23.37459947753698
 20
-19.37209956699982
 30
0.0
 11
23.37459947753698
 21
-23.05439948469401
 31
0.0
  0
ARC
  5
133
330
7A
100
AcDbEntity
  8
Primus-V4 Flight Controller Outline v6 (1)_BOTOTM
100
AcDbCircle
 10
20.49279954195023
 20
19.93244955447502
 30
0.0
 40
0.5603499874752015
100
AcDbArc
 50
269.9999999999997
 51
89.99999999999964
  0
LINE
  5
134
330
7A
100
AcDbEntity
  8
Primus-V4 Flight Controller Outline v6 (1)_BOTOTM
100
AcDbLine
 10
-6.287485616177495
 20
-16.44329570499996
 30
0.0
 11
-9.373127622491791
 21
-16.44329570499996
 31
0.0
  0
LINE
  5
135
330
7A
100
AcDbEntity
  8
Primus-V4 Flight Controller Outline v6 (1)_BOTOTM
100
AcDbLine
 10
20.17259954910725
 20
-7.744723953866325
 30
0.0
 11
20.17259954910725
 21
2.305652866700238
 31
0.0
  0
ARC
  5
136
330
7A
100
AcDbEntity
  8
Primus-V4 Flight Controller Outline v6 (1)_BOTOTM
100
AcDbCircle
 10
20.44832732072203
 20
17.56652738513528
 30
0.0
 40
1.806119786277765
100
AcDbArc
 50
88.58905917961727
 51
1.410940820382725
  0
ARC
  5
137
330
7A
100
AcDbEntity
  8
Primus-V4 Flight Controller Outline v6 (1)_BOTOTM
100
AcDbCircle
 10
-22.4940494972188
 20
-23.05439948469401
 30
0.0
 40
0.560349987475198
100
AcDbArc
 50
180.0
 51
0.0
  0
LINE
  5
138
330
7A
100
AcDbEntity
  8
Primus-V4 Flight Controller Outline v6 (1)_BOTOTM
100
AcDbLine
 10
-9.373127622491791
 20
0.4836547296384611
 30
0.0
 11
-6.287485616177496
 21
0.4836547296384611
 31
0.0
  0
LINE
  5
139
330
7A
100
AcDbEntity
  8
Primus-V4 Flight Controller Outline v6 (1)_BOTOTM
100
AcDbLine
 10
15.31200842802257
 20
-7.744723953866325
 30
0.0
 11
20.17259954910725
 21
-7.744723953866325
 31
0.0
  0
LINE
  5
13A
330
7A
100
AcDbEntity
  8
Primus-V4 Flight Controller Outline v6 (1)_BOTOTM
100
AcDbLine
 10
-21.93369950974361
 20
-23.05439948469401
 30
0.0
 11
-20.17259954910725
 21
-24.81549944533036
 31
0.0
  0
LINE
  5
13B
330
7A
100
AcDbEntity
  8
Primus-V4 Flight Controller Outline v6 (1)_BOTOTM
100
AcDbLine
 10
6.724199849702418
 20
19.69229955984279
 30
0.0
 11
-6.224511168161973
 21
19.69229955984279
 31
0.0
  0
LINE
  5
13C
330
7A
100
AcDbEntity
  8
Primus-V4 Flight Controller Outline v6 (1)_BOTOTM
100
AcDbLine
 10
-6.287485616177495
 20
-4.570920747371621
 30
0.0
 11
-9.373127622491791
 21
-4.570920747371621
 31
0.0
  0
LINE
  5
13D
330
7A
100
AcDbEntity
  8
Primus-V4 Flight Controller Outline v6 (1)_BOTOTM
100
AcDbLine
 10
6.437114276528125
 20
-7.4508532865983
 30
0.0
 11
9.606000143140553
 21
-7.4508532865983
 31
0.0
  0
LINE
  5
13E
330
7A
100
AcDbEntity
  8
Primus-V4 Flight Controller Outline v6 (1)_BOTOTM
100
AcDbLine
 10
-7.080936417801172
 20
5.185585405926914
 30
0.0
 11
-5.494034814553819
 21
5.185585405926914
 31
0.0
  0
LINE
  5
13F
330
7A
100
AcDbEntity
  8
Primus-V4 Flight Controller Outline v6 (1)_BOTOTM
100
AcDbLine
 10
-9.373127622491791
 20
-4.570920747371621
 30
0.0
 11
-9.373127622491791
 21
0.4836547296384613
 31
0.0
  0
LINE
  5
140
330
7A
100
AcDbEntity
  8
Primus-V4 Flight Controller Outline v6 (1)_BOTOTM
100
AcDbLine
 10
6.437114276528125
 20
-4.803000071570276
 30
0.0
 11
6.437114276528125
 21
-7.4508532865983
 31
0.0
  0
LINE
  5
141
330
7A
100
AcDbEntity
  8
Primus-V4 Flight Controller Outline v6 (1)_BOTOTM
100
AcDbLine
 10
4.73266440637356
 20
2.599523533968263
 30
0.0
 11
4.73266440637356
 21
11.88583661963795
 31
0.0
  0
LINE
  5
142
330
7A
100
AcDbEntity
  8
Primus-V4 Flight Controller Outline v6 (1)_BOTOTM
100
AcDbLine
 10
-16.65039962783456
 20
20.49279954195022
 30
0.0
 11
-20.17259954910725
 21
20.49279954195022
 31
0.0
  0
LINE
  5
143
330
7A
100
AcDbEntity
  8
Primus-V4 Flight Controller Outline v6 (1)_BOTOTM
100
AcDbLine
 10
20.17259954910725
 20
10.88679975666105
 30
0.0
 11
20.17259954910725
 21
-16.1700996385701
 31
0.0
  0
LINE
  5
144
330
7A
100
AcDbEntity
  8
Primus-V4 Flight Controller Outline v6 (1)_BOTOTM
100
AcDbLine
 10
-9.373127622491791
 20
-13.26949249850525
 30
0.0
 11
-6.287485616177496
 21
-13.26949249850525
 31
0.0
  0
LINE
  5
145
330
7A
100
AcDbEntity
  8
Primus-V4 Flight Controller Outline v6 (1)_BOTOTM
100
AcDbLine
 10
-3.554488410584832
 20
-22.73419949185103
 30
0.0
 11
3.968600671476687
 21
-22.73419949185103
 31
0.0
  0
LINE
  5
146
330
7A
100
AcDbEntity
  8
Primus-V4 Flight Controller Outline v6 (1)_BOTOTM
100
AcDbLine
 10
-19.85239955626428
 20
-16.33019963499158
 30
0.0
 11
-23.05439948469401
 21
-19.53219956342131
 31
0.0
  0
ARC
  5
147
330
7A
100
AcDbEntity
  8
Primus-V4 Flight Controller Outline v6 (1)_BOTOTM
100
AcDbCircle
 10
-22.4940494972188
 20
17.61099960636347
 30
0.0
 40
0.5603499874752015
100
AcDbArc
 50
0.0
 51
180.0
  0
LINE
  5
148
330
7A
100
AcDbEntity
  8
Primus-V4 Flight Controller Outline v6 (1)_BOTOTM
100
AcDbLine
 10
-13.28830063116038
 20
-22.73419949185103
 30
0.0
 11
-16.49030078324722
 21
-25.9362012319034
 31
0.0
  0
LINE
  5
149
330
7A
100
AcDbEntity
  8
Primus-V4 Flight Controller Outline v6 (1)_BOTOTM
100
AcDbLine
 10
-5.494034814553819
 20
8.359388612421621
 30
0.0
 11
-7.080936417801172
 21
8.359388612421621
 31
0.0
  0
ARC
  5
14A
330
7A
100
AcDbEntity
  8
Primus-V4 Flight Controller Outline v6 (1)_BOTOTM
100
AcDbCircle
 10
-20.17259954910725
 20
19.93244955447502
 30
0.0
 40
0.5603499874752015
100
AcDbArc
 50
90.00000000000035
 51
270.0000000000003
  0
LINE
  5
14B
330
7A
100
AcDbEntity
  8
Primus-V4 Flight Controller Outline v6 (1)_BOTOTM
100
AcDbLine
 10
-16.49030078324722
 20
-25.9362012319034
 30
0.0
 11
-20.17259954910725
 21
-25.9362012319034
 31
0.0
  0
ARC
  5
14C
330
7A
100
AcDbEntity
  8
Primus-V4 Flight Controller Outline v6 (1)_BOTOTM
100
AcDbCircle
 10
-20.08789304493998
 20
-22.96969298052673
 30
0.0
 40
1.847749089394741
100
AcDbArc
 50
267.3724642746431
 51
182.6275357253568
  0
LINE
  5
14D
330
7A
100
AcDbEntity
  8
Primus-V4 Flight Controller Outline v6 (1)_BOTOTM
100
AcDbLine
 10
-6.287485616177495
 20
0.4836547296384611
 30
0.0
 11
-6.287485616177495
 21
-4.570920747371621
 31
0.0
  0
LINE
  5
14E
330
7A
100
AcDbEntity
  8
Primus-V4 Flight Controller Outline v6 (1)_BOTOTM
100
AcDbLine
 10
9.606000143140553
 20
-7.4508532865983
 30
0.0
 11
9.606000143140553
 21
-4.803000071570276
 31
0.0
  0
ARC
  5
14F
330
7A
100
AcDbEntity
  8
Primus-V4 Flight Controller Outline v6 (1)_BOTOTM
100
AcDbCircle
 10
22.81424949006177
 20
-23.05439948469401
 30
0.0
 40
0.5603499874752015
100
AcDbArc
 50
180.0
 51
0.0
  0
LINE
  5
150
330
7A
100
AcDbEntity
  8
Primus-V4 Flight Controller Outline v6 (1)_BOTOTM
100
AcDbLine
 10
19.80136961752328
 20
-3.988423327974812
 30
0.0
 11
8.117867315588167
 21
-3.988423327974812
 31
0.0
  0
LINE
  5
151
330
7A
100
AcDbEntity
  8
Primus-V4 Flight Controller Outline v6 (1)_BOTOTM
100
AcDbLine
 10
-6.287485616177495
 20
-13.26949249850525
 30
0.0
 11
-6.287485616177495
 21
-16.44329570499996
 31
0.0
  0
LINE
  5
152
330
7A
100
AcDbEntity
  8
Primus-V4 Flight Controller Outline v6 (1)_BOTOTM
100
AcDbLine
 10
-23.05439948469401
 20
17.61099960636347
 30
0.0
 11
-23.05439948469401
 21
14.08879968509078
 31
0.0
  0
LINE
  5
153
330
7A
100
AcDbEntity
  8
Primus-V4 Flight Controller Outline v6 (1)_BOTOTM
100
AcDbLine
 10
-4.553135593626437
 20
11.88583661963795
 30
0.0
 11
-4.553135593626437
 21
2.599523533968264
 31
0.0
  0
LINE
  5
154
330
7A
100
AcDbEntity
  8
Primus-V4 Flight Controller Outline v6 (1)_BOTOTM
100
AcDbLine
 10
-9.373127622491791
 20
-16.44329570499996
 30
0.0
 11
-9.373127622491791
 21
-13.26949249850525
 31
0.0
  0
LINE
  5
155
330
7A
100
AcDbEntity
  8
Primus-V4 Flight Controller Outline v6 (1)_BOTOTM
100
AcDbLine
 10
3.968600671476687
 20
-18.20651970860813
 30
0.0
 11
-3.554488410584832
 21
-18.20651970860813
 31
0.0
  0
LINE
  5
156
330
7A
100
AcDbEntity
  8
Primus-V4 Flight Controller Outline v6 (1)_BOTOTM
100
AcDbLine
 10
20.17259954910725
 20
2.305652866700238
 30
0.0
 11
15.31200842802258
 21
2.305652866700238
 31
0.0
  0
LINE
  5
157
330
7A
100
AcDbEntity
  8
Primus-V4 Flight Controller Outline v6 (1)_BOTOTM
100
AcDbLine
 10
8.117867315588167
 20
-3.988423327974812
 30
0.0
 11
8.117867315588167
 21
-1.093396208911245
 31
0.0
  0
LINE
  5
158
330
7A
100
AcDbEntity
  8
Primus-V4 Flight Controller Outline v6 (1)_BOTOTM
100
AcDbLine
 10
-6.890647361001134
 20
-16.34185838713434
 30
0.0
 11
-14.89064748021041
 21
-16.34185838713433
 31
0.0
  0
ARC
  5
159
330
7A
100
AcDbEntity
  8
Primus-V4 Flight Controller Outline v6 (1)_BOTOTM
100
AcDbCircle
 10
20.4082356838955
 20
-22.96983751194524
 30
0.0
 40
1.847599972629487
100
AcDbArc
 50
357.376738824206
 51
272.6233641379787
  0
LINE
  5
15A
330
7A
100
AcDbEntity
  8
Primus-V4 Flight Controller Outline v6 (1)_BOTOTM
100
AcDbLine
 10
19.80136961752328
 20
-1.093396208911245
 30
0.0
 11
19.80136961752328
 21
-3.988423327974812
 31
0.0
  0
LINE
  5
15B
330
7A
100
AcDbEntity
  8
Primus-V4 Flight Controller Outline v6 (1)_BOTOTM
100
AcDbLine
 10
-14.89064748021041
 20
-16.34185838713434
 30
0.0
 11
-14.89064748021041
 21
-14.34185835733202
 31
0.0
  0
LINE
  5
15C
330
7A
100
AcDbEntity
  8
Primus-V4 Flight Controller Outline v6 (1)_BOTOTM
100
AcDbLine
 10
-5.494034814553819
 20
5.185585405926914
 30
0.0
 11
-5.494034814553819
 21
8.359388612421621
 31
0.0
  0
LINE
  5
15D
330
7A
100
AcDbEntity
  8
Primus-V4 Flight Controller Outline v6 (1)_BOTOTM
100
AcDbLine
 10
4.73266440637356
 20
11.88583661963795
 30
0.0
 11
-4.553135593626439
 21
11.88583661963795
 31
0.0
  0
LINE
  5
15E
330
7A
100
AcDbEntity
  8
Primus-V4 Flight Controller Outline v6 (1)_BOTOTM
100
AcDbLine
 10
9.606000143140553
 20
-4.803000071570276
 30
0.0
 11
6.437114276528125
 21
-4.803000071570276
 31
0.0
  0
LINE
  5
15F
330
7A
100
AcDbEntity
  8
Primus-V4 Flight Controller Outline v6 (1)_BOTOTM
100
AcDbLine
 10
-9.539965292633985
 20
-2.373921414629488
 30
0.0
 11
-16.5399653969421
 21
-2.373921414629488
 31
0.0
  0
LINE
  5
160
330
7A
100
AcDbEntity
  8
Primus-V4 Flight Controller Outline v6 (1)_BOTOTM
100
AcDbLine
 10
-14.56323027940566
 20
5.160976065528044
 30
0.0
 11
-14.56323027940566
 21
7.160976095330362
 31
0.0
  0
ARC
  5
161
330
7A
100
AcDbEntity
  8
Primus-V4 Flight Controller Outline v6 (1)_BOTOTM
100
AcDbCircle
 10
10.34332990715454
 20
16.91153366649563
 30
0.0
 40
0.3792659470248716
100
AcDbArc
 50
89.99999999999973
 51
270.7523172169793
  0
LINE
  5
162
330
7A
100
AcDbEntity
  8
Primus-V4 Flight Controller Outline v6 (1)_BOTOTM
100
AcDbLine
 10
-6.116324650736313
 20
19.115385647032
 30
0.0
 11
1.883675468472967
 21
19.115385647032
 31
0.0
  0
LINE
  5
163
330
7A
100
AcDbEntity
  8
Primus-V4 Flight Controller Outline v6 (1)_BOTOTM
100
AcDbLine
 10
19.54236736265172
 20
-19.63002514427888
 30
0.0
 11
22.26605543701865
 21
-19.63002514427888
 31
0.0
  0
LINE
  5
164
330
7A
100
AcDbEntity
  8
Primus-V4 Flight Controller Outline v6 (1)_BOTOTM
100
AcDbLine
 10
17.61642905542993
 20
-21.55596345150066
 30
0.0
 11
5.443334243597703
 21
-21.55596345150066
 31
0.0
  0
LINE
  5
165
330
7A
100
AcDbEntity
  8
Primus-V4 Flight Controller Outline v6 (1)_BOTOTM
100
AcDbLine
 10
-6.116324650736313
 20
17.11538561722968
 30
0.0
 11
-6.116324650736313
 21
19.115385647032
 31
0.0
  0
ARC
  5
166
330
7A
100
AcDbEntity
  8
Primus-V4 Flight Controller Outline v6 (1)_BOTOTM
100
AcDbCircle
 10
-5.324977096057294
 20
-22.14508147167585
 30
0.0
 40
0.5891180201751834
100
AcDbArc
 50
270.0000000000001
 51
90.00000000000007
  0
LINE
  5
167
330
7A
100
AcDbEntity
  8
Primus-V4 Flight Controller Outline v6 (1)_BOTOTM
100
AcDbLine
 10
1.883675468472967
 20
17.11538561722968
 30
0.0
 11
-6.116324650736313
 21
17.11538561722968
 31
0.0
  0
LINE
  5
168
330
7A
100
AcDbEntity
  8
Primus-V4 Flight Controller Outline v6 (1)_BOTOTM
100
AcDbLine
 10
-8.626011114484265
 20
17.2907996135205
 30
0.0
 11
-6.224511168161973
 21
17.2907996135205
 31
0.0
  0
LINE
  5
169
330
7A
100
AcDbEntity
  8
Primus-V4 Flight Controller Outline v6 (1)_BOTOTM
100
AcDbLine
 10
-16.29531248556642
 20
16.53230041319176
 30
0.0
 11
-9.233058643605257
 21
16.53230041319176
 31
0.0
  0
LINE
  5
16A
330
7A
100
AcDbEntity
  8
Primus-V4 Flight Controller Outline v6 (1)_BOTOTM
100
AcDbLine
 10
19.54236736265172
 20
13.9577386345126
 30
0.0
 11
19.54236736265172
 21
3.764891084111448
 31
0.0
  0
LINE
  5
16B
330
7A
100
AcDbEntity
  8
Primus-V4 Flight Controller Outline v6 (1)_BOTOTM
100
AcDbLine
 10
-18.9805584929151
 20
13.84705440584309
 30
0.0
 11
-16.29531248556642
 21
16.53230041319176
 31
0.0
  0
LINE
  5
16C
330
7A
100
AcDbEntity
  8
Primus-V4 Flight Controller Outline v6 (1)_BOTOTM
100
AcDbLine
 10
-5.579177084471229
 20
-20.55497319830331
 30
0.0
 11
1.42082301983688
 21
-20.55497319830331
 31
0.0
  0
LINE
  5
16D
330
7A
100
AcDbEntity
  8
Primus-V4 Flight Controller Outline v6 (1)_BOTOTM
100
AcDbLine
 10
9.12569979602471
 20
17.2907996135205
 30
0.0
 11
6.724199849702418
 21
17.2907996135205
 31
0.0
  0
LINE
  5
16E
330
7A
100
AcDbEntity
  8
Primus-V4 Flight Controller Outline v6 (1)_BOTOTM
100
AcDbLine
 10
3.52982963787883
 20
-7.846342101276936
 30
0.0
 11
12.52982977198924
 21
-7.846342101276938
 31
0.0
  0
LINE
  5
16F
330
7A
100
AcDbEntity
  8
Primus-V4 Flight Controller Outline v6 (1)_BOTOTM
100
AcDbLine
 10
-16.5399653969421
 20
-2.373921414629488
 30
0.0
 11
-16.5399653969421
 21
-1.373921399728328
 31
0.0
  0
ARC
  5
170
330
7A
100
AcDbEntity
  8
Primus-V4 Flight Controller Outline v6 (1)_BOTOTM
100
AcDbCircle
 10
-9.233058643605257
 20
16.91155001335613
 30
0.0
 40
0.3792496001643664
100
AcDbArc
 50
270.0000000000002
 51
90.00000000000026
  0
LINE
  5
171
330
7A
100
AcDbEntity
  8
Primus-V4 Flight Controller Outline v6 (1)_BOTOTM
100
AcDbLine
 10
16.16766459445371
 20
16.53230041319176
 30
0.0
 11
19.54236736265172
 21
13.9577386345126
 31
0.0
  0
LINE
  5
172
330
7A
100
AcDbEntity
  8
Primus-V4 Flight Controller Outline v6 (1)_BOTOTM
100
AcDbLine
 10
1.42082301983688
 20
-22.55497322810562
 30
0.0
 11
-5.579177084471229
 21
-22.55497322810562
 31
0.0
  0
LINE
  5
173
330
7A
100
AcDbEntity
  8
Primus-V4 Flight Controller Outline v6 (1)_BOTOTM
100
AcDbLine
 10
3.52982963787883
 20
-9.846342131079248
 30
0.0
 11
3.52982963787883
 21
-7.846342101276936
 31
0.0
  0
LINE
  5
174
330
7A
100
AcDbEntity
  8
Primus-V4 Flight Controller Outline v6 (1)_BOTOTM
100
AcDbLine
 10
4.503375352678808
 20
7.305065949757121
 30
0.0
 11
4.503375352678808
 21
5.305065919954808
 31
0.0
  0
LINE
  5
175
330
7A
100
AcDbEntity
  8
Primus-V4 Flight Controller Outline v6 (1)_BOTOTM
100
AcDbLine
 10
10.33835013193467
 20
16.53230041319176
 30
0.0
 11
16.16766459445371
 21
16.53230041319176
 31
0.0
  0
ARC
  5
176
330
7A
100
AcDbEntity
  8
Primus-V4 Flight Controller Outline v6 (1)_BOTOTM
100
AcDbCircle
 10
19.85748345587948
 20
-9.217130898635849
 30
0.0
 40
0.3151160932277675
100
AcDbArc
 50
359.9999999999993
 51
179.9999999999994
  0
LINE
  5
177
330
7A
100
AcDbEntity
  8
Primus-V4 Flight Controller Outline v6 (1)_BOTOTM
100
AcDbLine
 10
-5.496624796332758
 20
5.305065919954808
 30
0.0
 11
-5.496624796332758
 21
7.305065949757121
 31
0.0
  0
LINE
  5
178
330
7A
100
AcDbEntity
  8
Primus-V4 Flight Controller Outline v6 (1)_BOTOTM
100
AcDbLine
 10
-18.9805584929151
 20
-20.06842517699972
 30
0.0
 11
-18.9805584929151
 21
13.84705440584309
 31
0.0
  0
LINE
  5
179
330
7A
100
AcDbEntity
  8
Primus-V4 Flight Controller Outline v6 (1)_BOTOTM
100
AcDbLine
 10
-5.496624796332758
 20
7.305065949757121
 30
0.0
 11
4.503375352678808
 21
7.305065949757121
 31
0.0
  0
LINE
  5
17A
330
7A
100
AcDbEntity
  8
Primus-V4 Flight Controller Outline v6 (1)_BOTOTM
100
AcDbLine
 10
-5.324977096057292
 20
-21.55596345150066
 30
0.0
 11
-16.59999962896108
 21
-21.55596345150066
 31
0.0
  0
LINE
  5
17B
330
7A
100
AcDbEntity
  8
Primus-V4 Flight Controller Outline v6 (1)_BOTOTM
100
AcDbLine
 10
-16.59999962896108
 20
-21.55596345150066
 30
0.0
 11
-18.9805584929151
 21
-20.06842517699972
 31
0.0
  0
LINE
  5
17C
330
7A
100
AcDbEntity
  8
Primus-V4 Flight Controller Outline v6 (1)_BOTOTM
100
AcDbLine
 10
-16.5399653969421
 20
-1.373921399728328
 30
0.0
 11
-9.539965292633986
 21
-1.373921399728328
 31
0.0
  0
LINE
  5
17D
330
7A
100
AcDbEntity
  8
Primus-V4 Flight Controller Outline v6 (1)_BOTOTM
100
AcDbLine
 10
12.52982977198924
 20
-7.846342101276938
 30
0.0
 11
12.52982977198924
 21
-9.84634213107925
 31
0.0
  0
LINE
  5
17E
330
7A
100
AcDbEntity
  8
Primus-V4 Flight Controller Outline v6 (1)_BOTOTM
100
AcDbLine
 10
-14.56323027940566
 20
7.160976095330362
 30
0.0
 11
-7.563230175097563
 21
7.160976095330362
 31
0.0
  0
LINE
  5
17F
330
7A
100
AcDbEntity
  8
Primus-V4 Flight Controller Outline v6 (1)_BOTOTM
100
AcDbLine
 10
12.52982977198924
 20
-9.84634213107925
 30
0.0
 11
3.52982963787883
 21
-9.846342131079248
 31
0.0
  0
LINE
  5
180
330
7A
100
AcDbEntity
  8
Primus-V4 Flight Controller Outline v6 (1)_BOTOTM
100
AcDbLine
 10
1.42082301983688
 20
-20.55497319830331
 30
0.0
 11
1.42082301983688
 21
-22.55497322810562
 31
0.0
  0
LINE
  5
181
330
7A
100
AcDbEntity
  8
Primus-V4 Flight Controller Outline v6 (1)_BOTOTM
100
AcDbLine
 10
-5.579177084471229
 20
-22.55497322810562
 30
0.0
 11
-5.579177084471229
 21
-20.55497319830331
 31
0.0
  0
ARC
  5
182
330
7A
100
AcDbEntity
  8
Primus-V4 Flight Controller Outline v6 (1)_BOTOTM
100
AcDbCircle
 10
5.443334243597703
 20
-22.14509103254519
 30
0.0
 40
0.589127581044524
100
AcDbArc
 50
90.0
 51
270.4616340307282
  0
LINE
  5
183
330
7A
100
AcDbEntity
  8
Primus-V4 Flight Controller Outline v6 (1)_BOTOTM
100
AcDbLine
 10
-7.563230175097563
 20
5.160976065528044
 30
0.0
 11
-14.56323027940566
 21
5.160976065528044
 31
0.0
  0
LINE
  5
184
330
7A
100
AcDbEntity
  8
Primus-V4 Flight Controller Outline v6 (1)_BOTOTM
100
AcDbLine
 10
-7.563230175097563
 20
7.160976095330362
 30
0.0
 11
-7.563230175097563
 21
5.160976065528044
 31
0.0
  0
LINE
  5
185
330
7A
100
AcDbEntity
  8
Primus-V4 Flight Controller Outline v6 (1)_BOTOTM
100
AcDbLine
 10
19.54236736265172
 20
-19.63002514427888
 30
0.0
 11
17.61642905542993
 21
-21.55596345150066
 31
0.0
  0
LINE
  5
186
330
7A
100
AcDbEntity
  8
Primus-V4 Flight Controller Outline v6 (1)_BOTOTM
100
AcDbLine
 10
4.503375352678808
 20
5.305065919954808
 30
0.0
 11
-5.496624796332758
 21
5.305065919954808
 31
0.0
  0
ARC
  5
187
330
7A
100
AcDbEntity
  8
Primus-V4 Flight Controller Outline v6 (1)_BOTOTM
100
AcDbCircle
 10
19.85748345587949
 20
3.764891084111452
 30
0.0
 40
0.3151160932277675
100
AcDbArc
 50
180.0000000000007
 51
0.0000000000007267
  0
LINE
  5
188
330
7A
100
AcDbEntity
  8
Primus-V4 Flight Controller Outline v6 (1)_BOTOTM
100
AcDbLine
 10
1.883675468472967
 20
19.115385647032
 30
0.0
 11
1.883675468472967
 21
17.11538561722968
 31
0.0
  0
LINE
  5
189
330
7A
100
AcDbEntity
  8
Primus-V4 Flight Controller Outline v6 (1)_BOTOTM
100
AcDbLine
 10
-9.539965292633985
 20
-1.373921399728328
 30
0.0
 11
-9.539965292633985
 21
-2.373921414629488
 31
0.0
  0
LINE
  5
18A
330
7A
100
AcDbEntity
  8
Primus-V4 Flight Controller Outline v6 (1)_BOTOTM
100
AcDbLine
 10
19.54236736265172
 20
-9.217130898635852
 30
0.0
 11
19.54236736265172
 21
-19.63002514427888
 31
0.0
  0
ENDBLK
  5
18D
330
7A
100
AcDbEntity
  8
0
100
AcDbBlockEnd
  0
ENDSEC
  0
SECTION
  2
ENTITIES
  0
INSERT
  5
18B
330
70
100
AcDbEntity
  8
0
100
AcDbBlockReference
  2
Primus-V4FlightControllerOutlinev6(1)
 10
10.98398971557617
 20
11.27217006683349
 30
0.0899999998509884
  0
ENDSEC
  0
SECTION
  2
OBJECTS
  0
DICTIONARY
  5
C
330
0
100
AcDbDictionary
281
     1
  3
ACAD_COLOR
350
63
  3
ACAD_DETAILVIEWSTYLE
350
6A
  3
ACAD_GROUP
350
D
  3
ACAD_LAYOUT
350
62
  3
ACAD_MATERIAL
350
10
  3
ACAD_MLEADERSTYLE
350
66
  3
ACAD_MLINESTYLE
350
5F
  3
ACAD_PLOTSETTINGS
350
61
  3
ACAD_PLOTSTYLENAME
350
E
  3
ACAD_SCALELIST
350
42
  3
ACAD_SECTIONVIEWSTYLE
350
68
  3
ACAD_TABLESTYLE
350
64
  3
ACAD_VISUALSTYLE
350
29
  3
ACDB_RECOMPOSE_DATA
350
196
  3
AcDbVariableDictionary
350
18E
  0
DICTIONARY
  5
63
102
{ACAD_REACTORS
330
C
102
}
330
C
100
AcDbDictionary
281
     1
  0
DICTIONARY
  5
6A
102
{ACAD_REACTORS
330
C
102
}
330
C
100
AcDbDictionary
281
     1
  3
Imperial24
350
6B
  0
DICTIONARY
  5
D
102
{ACAD_REACTORS
330
C
102
}
330
C
100
AcDbDictionary
281
     1
  0
DICTIONARY
  5
62
102
{ACAD_REACTORS
330
C
102
}
330
C
100
AcDbDictionary
281
     1
  3
Layout1
350
6F
  3
Layout2
350
77
  3
Model
350
73
  0
DICTIONARY
  5
10
102
{ACAD_REACTORS
330
C
102
}
330
C
100
AcDbDictionary
281
     1
  3
ByBlock
350
19
  3
ByLayer
350
11
  3
Global
350
21
  0
DICTIONARY
  5
66
102
{ACAD_REACTORS
330
C
102
}
330
C
100
AcDbDictionary
281
     1
  3
Standard
350
67
  0
DICTIONARY
  5
5F
102
{ACAD_REACTORS
330
C
102
}
330
C
100
AcDbDictionary
281
     1
  3
Standard
350
60
  0
DICTIONARY
  5
61
102
{ACAD_REACTORS
330
C
102
}
330
C
100
AcDbDictionary
281
     1
  0
ACDBDICTIONARYWDFLT
  5
E
102
{ACAD_REACTORS
330
C
102
}
330
C
100
AcDbDictionary
281
     1
  3
Normal
350
F
100
AcDbDictionaryWithDefault
340
F
  0
DICTIONARY
  5
42
102
{ACAD_REACTORS
330
C
102
}
330
C
100
AcDbDictionary
281
     1
  3
A0
350
43
  3
A1
350
44
  3
A2
350
45
  3
A3
350
46
  3
A4
350
47
  3
A5
350
48
  3
A6
350
49
  3
A7
350
4A
  3
A8
350
4B
  3
A9
350
4C
  3
B0
350
4D
  3
B1
350
4E
  3
B2
350
4F
  3
B3
350
50
  3
B4
350
51
  3
B5
350
52
  3
B6
350
53
  0
DICTIONARY
  5
68
102
{ACAD_REACTORS
330
C
102
}
330
C
100
AcDbDictionary
281
     1
  3
Imperial24
350
69
  0
DICTIONARY
  5
64
102
{ACAD_REACTORS
330
C
102
}
330
C
100
AcDbDictionary
281
     1
  3
Standard
350
65
  0
DICTIONARY
  5
29
102
{ACAD_REACTORS
330
C
102
}
330
C
100
AcDbDictionary
281
     1
  3
2dWireframe
350
2F
  3
Basic
350
2E
  3
Brighten
350
35
  3
ColorChange
350
39
  3
Conceptual
350
32
  3
Dim
350
34
  3
EdgeColorOff
350
41
  3
Facepattern
350
38
  3
Flat
350
2A
  3
FlatWithEdges
350
2B
  3
Gouraud
350
2C
  3
GouraudWithEdges
350
2D
  3
Hidden
350
31
  3
JitterOff
350
3F
  3
Linepattern
350
37
  3
OverhangOff
350
40
  3
Realistic
350
33
  3
Shaded
350
3E
  3
Shaded with edges
350
3D
  3
Shades of Gray
350
3A
  3
Sketchy
350
3B
  3
Thicken
350
36
  3
Wireframe
350
30
  3
X-Ray
350
3C
  0
XRECORD
  5
196
102
{ACAD_REACTORS
330
C
102
}
330
C
100
AcDbXrecord
280
     1
 90
        1
330
65
  0
DICTIONARY
  5
18E
102
{ACAD_REACTORS
330
C
102
}
330
C
100
AcDbDictionary
281
     1
  3
CANNOSCALE
350
193
  3
CMLEADERSTYLE
350
190
  3
CTABLESTYLE
350
18F
  3
CVIEWDETAILSTYLE
350
191
  3
CVIEWSECTIONSTYLE
350
192
  0
ACDBDETAILVIEWSTYLE
  5
6B
102
{ACAD_XDICTIONARY
360
199
102
}
102
{ACAD_REACTORS
330
6A
102
}
330
6A
100
AcDbModelDocViewStyle
 70
     0
  3
Imperial24
290
     0
100
AcDbDetailViewStyle
 70
     0
 71
     0
 90
        3
 71
     1
340
55
 62
   256
 40
0.24
340
0
 62
   256
 40
0.24
300

 40
0.36
280
     3
 71
     2
340
5D
 90
       25
 62
   256
 71
     3
340
55
 62
   256
 40
0.24
 90
        1
 40
0.75
 90
        1
300
%<\AcVar ViewType \f "%tc1">% %<\AcVar ViewDetailId>%\PSCALE %<\AcVar ViewScale \f "%sn">%
 71
     4
340
5D
 90
       25
 62
   256
340
5D
 90
       25
 62
   256
280
     0
  0
LAYOUT
  5
6F
102
{ACAD_REACTORS
330
62
102
}
330
62
100
AcDbPlotSettings
  1

  2

  4

  6

 40
0.0
 41
0.0
 42
0.0
 43
0.0
 44
0.0
 45
0.0
 46
0.0
 47
0.0
 48
0.0
 49
0.0
140
0.0
141
0.0
142
1.0
143
1.0
 70
   688
 72
     0
 73
     0
 74
     5
  7

 75
    16
147
1.0
 76
     0
 77
     2
 78
   300
148
0.0
149
0.0
100
AcDbLayout
  1
Layout1
 70
     1
 71
     1
 10
0.0
 20
0.0
 11
12.0
 21
9.0
 12
0.0
 22
0.0
 32
0.0
 14
0.0
 24
0.0
 34
0.0
 15
0.0
 25
0.0
 35
0.0
146
0.0
 13
0.0
 23
0.0
 33
0.0
 16
1.0
 26
0.0
 36
0.0
 17
0.0
 27
1.0
 37
0.0
 76
     0
330
6C
  0
LAYOUT
  5
77
102
{ACAD_REACTORS
330
62
102
}
330
62
100
AcDbPlotSettings
  1

  2

  4

  6

 40
0.0
 41
0.0
 42
0.0
 43
0.0
 44
0.0
 45
0.0
 46
0.0
 47
0.0
 48
0.0
 49
0.0
140
0.0
141
0.0
142
1.0
143
1.0
 70
   688
 72
     0
 73
     0
 74
     5
  7

 75
    16
147
1.0
 76
     0
 77
     2
 78
   300
148
0.0
149
0.0
100
AcDbLayout
  1
Layout2
 70
     1
 71
     2
 10
0.0
 20
0.0
 11
12.0
 21
9.0
 12
0.0
 22
0.0
 32
0.0
 14
0.0
 24
0.0
 34
0.0
 15
0.0
 25
0.0
 35
0.0
146
0.0
 13
0.0
 23
0.0
 33
0.0
 16
1.0
 26
0.0
 36
0.0
 17
0.0
 27
1.0
 37
0.0
 76
     0
330
74
  0
LAYOUT
  5
73
102
{ACAD_REACTORS
330
62
102
}
330
62
100
AcDbPlotSettings
  1

  2

  4

  6

 40
0.0
 41
0.0
 42
0.0
 43
0.0
 44
0.0
 45
0.0
 46
0.0
 47
0.0
 48
0.0
 49
0.0
140
0.0
141
0.0
142
1.0
143
1.0
 70
  1712
 72
     0
 73
     0
 74
     0
  7

 75
     0
147
1.0
 76
     0
 77
     2
 78
   300
148
0.0
149
0.0
100
AcDbLayout
  1
Model
 70
     1
 71
     0
 10
0.0
 20
0.0
 11
12.0
 21
9.0
 12
0.0
 22
0.0
 32
0.0
 14
0.0
 24
0.0
 34
0.0
 15
0.0
 25
0.0
 35
0.0
146
0.0
 13
0.0
 23
0.0
 33
0.0
 16
1.0
 26
0.0
 36
0.0
 17
0.0
 27
1.0
 37
0.0
 76
     0
330
70
  0
MATERIAL
  5
19
102
{ACAD_XDICTIONARY
360
1A
102
}
102
{ACAD_REACTORS
330
10
102
}
330
10
100
AcDbMaterial
  1
ByBlock
 72
     0
 43
0.0208333333333333
 43
0.0
 43
0.0
 43
0.0
 43
0.0
 43
0.0208333333333333
 43
0.0
 43
0.0
 43
0.0
 43
0.0
 43
1.0
 43
0.0
 43
0.0
 43
0.0
 43
0.0
 43
1.0
 77
     0
 47
0.0208333333333333
 47
0.0
 47
0.0
 47
0.0
 47
0.0
 47
0.0208333333333333
 47
0.0
 47
0.0
 47
0.0
 47
0.0
 47
1.0
 47
0.0
 47
0.0
 47
0.0
 47
0.0
 47
1.0
171
     0
 49
0.0208333333333333
 49
0.0
 49
0.0
 49
0.0
 49
0.0
 49
0.0208333333333333
 49
0.0
 49
0.0
 49
0.0
 49
0.0
 49
1.0
 49
0.0
 49
0.0
 49
0.0
 49
0.0
 49
1.0
175
     0
142
0.0208333333333333
142
0.0
142
0.0
142
0.0
142
0.0
142
0.0208333333333333
142
0.0
142
0.0
142
0.0
142
0.0
142
1.0
142
0.0
142
0.0
142
0.0
142
0.0
142
1.0
179
     0
144
0.0208333333333333
144
0.0
144
0.0
144
0.0
144
0.0
144
0.0208333333333333
144
0.0
144
0.0
144
0.0
144
0.0
144
1.0
144
0.0
144
0.0
144
0.0
144
0.0
144
1.0
147
0.0208333333333333
147
0.0
147
0.0
147
0.0
147
0.0
147
0.0208333333333333
147
0.0
147
0.0
147
0.0
147
0.0
147
1.0
147
0.0
147
0.0
147
0.0
147
0.0
147
1.0
  0
MATERIAL
  5
11
102
{ACAD_XDICTIONARY
360
12
102
}
102
{ACAD_REACTORS
330
10
102
}
330
10
100
AcDbMaterial
  1
ByLayer
 72
     0
 43
0.0208333333333333
 43
0.0
 43
0.0
 43
0.0
 43
0.0
 43
0.0208333333333333
 43
0.0
 43
0.0
 43
0.0
 43
0.0
 43
1.0
 43
0.0
 43
0.0
 43
0.0
 43
0.0
 43
1.0
 77
     0
 47
0.0208333333333333
 47
0.0
 47
0.0
 47
0.0
 47
0.0
 47
0.0208333333333333
 47
0.0
 47
0.0
 47
0.0
 47
0.0
 47
1.0
 47
0.0
 47
0.0
 47
0.0
 47
0.0
 47
1.0
171
     0
 49
0.0208333333333333
 49
0.0
 49
0.0
 49
0.0
 49
0.0
 49
0.0208333333333333
 49
0.0
 49
0.0
 49
0.0
 49
0.0
 49
1.0
 49
0.0
 49
0.0
 49
0.0
 49
0.0
 49
1.0
175
     0
142
0.0208333333333333
142
0.0
142
0.0
142
0.0
142
0.0
142
0.0208333333333333
142
0.0
142
0.0
142
0.0
142
0.0
142
1.0
142
0.0
142
0.0
142
0.0
142
0.0
142
1.0
179
     0
144
0.0208333333333333
144
0.0
144
0.0
144
0.0
144
0.0
144
0.0208333333333333
144
0.0
144
0.0
144
0.0
144
0.0
144
1.0
144
0.0
144
0.0
144
0.0
144
0.0
144
1.0
147
0.0208333333333333
147
0.0
147
0.0
147
0.0
147
0.0
147
0.0208333333333333
147
0.0
147
0.0
147
0.0
147
0.0
147
1.0
147
0.0
147
0.0
147
0.0
147
0.0
147
1.0
  0
MATERIAL
  5
21
102
{ACAD_XDICTIONARY
360
22
102
}
102
{ACAD_REACTORS
330
10
102
}
330
10
100
AcDbMaterial
  1
Global
 72
     0
 43
0.0208333333333333
 43
0.0
 43
0.0
 43
0.0
 43
0.0
 43
0.0208333333333333
 43
0.0
 43
0.0
 43
0.0
 43
0.0
 43
1.0
 43
0.0
 43
0.0
 43
0.0
 43
0.0
 43
1.0
 77
     0
 47
0.0208333333333333
 47
0.0
 47
0.0
 47
0.0
 47
0.0
 47
0.0208333333333333
 47
0.0
 47
0.0
 47
0.0
 47
0.0
 47
1.0
 47
0.0
 47
0.0
 47
0.0
 47
0.0
 47
1.0
171
     0
 49
0.0208333333333333
 49
0.0
 49
0.0
 49
0.0
 49
0.0
 49
0.0208333333333333
 49
0.0
 49
0.0
 49
0.0
 49
0.0
 49
1.0
 49
0.0
 49
0.0
 49
0.0
 49
0.0
 49
1.0
175
     0
142
0.0208333333333333
142
0.0
142
0.0
142
0.0
142
0.0
142
0.0208333333333333
142
0.0
142
0.0
142
0.0
142
0.0
142
1.0
142
0.0
142
0.0
142
0.0
142
0.0
142
1.0
179
     0
144
0.0208333333333333
144
0.0
144
0.0
144
0.0
144
0.0
144
0.0208333333333333
144
0.0
144
0.0
144
0.0
144
0.0
144
1.0
144
0.0
144
0.0
144
0.0
144
0.0
144
1.0
147
0.0208333333333333
147
0.0
147
0.0
147
0.0
147
0.0
147
0.0208333333333333
147
0.0
147
0.0
147
0.0
147
0.0
147
1.0
147
0.0
147
0.0
147
0.0
147
0.0
147
1.0
  0
MLEADERSTYLE
  5
67
102
{ACAD_REACTORS
330
66
102
}
330
66
100
AcDbMLeaderStyle
179
     2
170
     2
171
     1
172
     0
 90
        2
 40
0.0
 41
0.0
173
     1
 91
-1056964608
340
5B
 92
       -2
290
     1
 42
0.09
291
     1
 43
0.36
  3
Standard
 44
0.18
300

342
55
174
     1
178
     6
175
     1
176
     0
 93
-1056964608
 45
0.18
292
     0
297
     0
 46
0.18
 94
-1056964608
 47
1.0
 49
1.0
140
1.0
293
     1
141
0.0
294
     1
177
     0
142
1.0
295
     0
296
     0
143
0.125
271
     0
272
     9
273
     9
298
     1
  0
MLINESTYLE
  5
60
102
{ACAD_REACTORS
330
5F
102
}
330
5F
100
AcDbMlineStyle
  2
STANDARD
 70
     0
  3

 62
   256
 51
90.0
 52
90.0
 71
     2
 49
0.5
 62
   256
  6
BYLAYER
 49
-0.5
 62
   256
  6
BYLAYER
  0
ACDBPLACEHOLDER
  5
F
102
{ACAD_REACTORS
330
E
102
}
330
E
  0
SCALE
  5
43
102
{ACAD_REACTORS
330
42
102
}
330
42
100
AcDbScale
 70
     0
300
1:1
140
1.0
141
1.0
290
     1
  0
SCALE
  5
44
102
{ACAD_REACTORS
330
42
102
}
330
42
100
AcDbScale
 70
     0
300
1/128" = 1'-0"
140
0.0078125
141
12.0
290
     0
  0
SCALE
  5
45
102
{ACAD_REACTORS
330
42
102
}
330
42
100
AcDbScale
 70
     0
300
1/64" = 1'-0"
140
0.015625
141
12.0
290
     0
  0
SCALE
  5
46
102
{ACAD_REACTORS
330
42
102
}
330
42
100
AcDbScale
 70
     0
300
1/32" = 1'-0"
140
0.03125
141
12.0
290
     0
  0
SCALE
  5
47
102
{ACAD_REACTORS
330
42
102
}
330
42
100
AcDbScale
 70
     0
300
1/16" = 1'-0"
140
0.0625
141
12.0
290
     0
  0
SCALE
  5
48
102
{ACAD_REACTORS
330
42
102
}
330
42
100
AcDbScale
 70
     0
300
3/32" = 1'-0"
140
0.09375
141
12.0
290
     0
  0
SCALE
  5
49
102
{ACAD_REACTORS
330
42
102
}
330
42
100
AcDbScale
 70
     0
300
1/8" = 1'-0"
140
0.125
141
12.0
290
     0
  0
SCALE
  5
4A
102
{ACAD_REACTORS
330
42
102
}
330
42
100
AcDbScale
 70
     0
300
3/16" = 1'-0"
140
0.1875
141
12.0
290
     0
  0
SCALE
  5
4B
102
{ACAD_REACTORS
330
42
102
}
330
42
100
AcDbScale
 70
     0
300
1/4" = 1'-0"
140
0.25
141
12.0
290
     0
  0
SCALE
  5
4C
102
{ACAD_REACTORS
330
42
102
}
330
42
100
AcDbScale
 70
     0
300
3/8" = 1'-0"
140
0.375
141
12.0
290
     0
  0
SCALE
  5
4D
102
{ACAD_REACTORS
330
42
102
}
330
42
100
AcDbScale
 70
     0
300
1/2" = 1'-0"
140
0.5
141
12.0
290
     0
  0
SCALE
  5
4E
102
{ACAD_REACTORS
330
42
102
}
330
42
100
AcDbScale
 70
     0
300
3/4" = 1'-0"
140
0.75
141
12.0
290
     0
  0
SCALE
  5
4F
102
{ACAD_REACTORS
330
42
102
}
330
42
100
AcDbScale
 70
     0
300
1" = 1'-0"
140
1.0
141
12.0
290
     0
  0
SCALE
  5
50
102
{ACAD_REACTORS
330
42
102
}
330
42
100
AcDbScale
 70
     0
300
1-1/2" = 1'-0"
140
1.5
141
12.0
290
     0
  0
SCALE
  5
51
102
{ACAD_REACTORS
330
42
102
}
330
42
100
AcDbScale
 70
     0
300
3" = 1'-0"
140
3.0
141
12.0
290
     0
  0
SCALE
  5
52
102
{ACAD_REACTORS
330
42
102
}
330
42
100
AcDbScale
 70
     0
300
6" = 1'-0"
140
6.0
141
12.0
290
     0
  0
SCALE
  5
53
102
{ACAD_REACTORS
330
42
102
}
330
42
100
AcDbScale
 70
     0
300
1'-0" = 1'-0"
140
12.0
141
12.0
290
     0
  0
ACDBSECTIONVIEWSTYLE
  5
69
102
{ACAD_XDICTIONARY
360
197
102
}
102
{ACAD_REACTORS
330
68
102
}
330
68
100
AcDbModelDocViewStyle
 70
     0
  3
Imperial24
290
     0
100
AcDbSectionViewStyle
 70
     0
 71
     0
 90
       78
 71
     1
340
55
 62
   256
 40
0.24
340
0
340
0
 62
   256
 40
0.24
300
I, O, Q, S, X, Z
 40
0.48
 90
        3
 40
0.18
 90
        1
 71
     2
340
5D
 90
       25
 62
   256
340
5D
 90
       50
 62
   256
 40
0.24
 40
0.0
 40
0.24
 71
     3
340
55
 62
   256
 40
0.24
 90
        1
 40
0.75
 90
        1
300
%<\AcVar ViewType \f "%tc1">% %<\AcVar ViewSectionStartId>%-%<\AcVar ViewSectionEndId>%\PSCALE %<\AcVar ViewScale \f "%sn">%
 71
     4
 62
   256
 62
   257
300
ANSI31
 40
1.0
 90
        0
290
     0
290
     0
 90
        6
 40
0.0
 40
1.570796326794896
 40
0.2617993877991494
 40
1.308996938995747
 40
-0.2617993877991494
 40
1.832595714594046
  0
TABLESTYLE
  5
65
102
{ACAD_XDICTIONARY
360
194
102
}
102
{ACAD_REACTORS
330
64
102
}
330
64
100
AcDbTableStyle
280
     0
  3
Standard
 70
     0
 71
     0
 40
0.06
 41
0.06
280
     0
281
     0
  7
Standard
140
0.18
170
     2
 62
     0
 63
     7
283
     0
 90
      512
 91
        0
  1

274
    -2
284
     1
 64
     0
275
    -2
285
     1
 65
     0
276
    -2
286
     1
 66
     0
277
    -2
287
     1
 67
     0
278
    -2
288
     1
 68
     0
279
    -2
289
     1
 69
     0
  7
Standard
140
0.25
170
     5
 62
     0
 63
     7
283
     0
 90
      512
 91
        0
  1

274
    -2
284
     1
 64
     0
275
    -2
285
     1
 65
     0
276
    -2
286
     1
 66
     0
277
    -2
287
     1
 67
     0
278
    -2
288
     1
 68
     0
279
    -2
289
     1
 69
     0
  7
Standard
140
0.18
170
     5
 62
     0
 63
     7
283
     0
 90
      512
 91
        0
  1

274
    -2
284
     1
 64
     0
275
    -2
285
     1
 65
     0
276
    -2
286
     1
 66
     0
277
    -2
287
     1
 67
     0
278
    -2
288
     1
 68
     0
279
    -2
289
     1
 69
     0
  0
VISUALSTYLE
  5
2F
102
{ACAD_REACTORS
330
29
102
}
330
29
100
AcDbVisualStyle
  2
2dWireframe
 70
     4
177
     3
291
     0
 70
    58
 90
        0
176
     1
 90
        2
176
     1
 90
        0
176
     1
 90
        0
176
     1
 40
0.6
176
     1
 40
30.0
176
     1
 62
     7
420
 16777215
176
     1
 90
        1
176
     1
 90
        4
176
     1
 62
     7
176
     1
 62
   257
176
     1
 90
        1
176
     1
 90
        1
176
     1
 40
1.0
176
     1
 90
        0
176
     1
 62
   257
176
     1
 40
1.0
176
     1
 90
        1
176
     1
 90
        6
176
     1
 90
        2
176
     1
 62
     7
176
     1
 90
        5
176
     1
 90
        0
176
     1
 90
        0
176
     1
290
     0
176
     1
 90
        1
176
     1
 40
0.0
176
     1
 90
        0
176
     1
290
     1
176
     1
290
     1
176
     1
290
     0
176
     1
290
     0
176
     1
290
     0
176
     1
290
     0
176
     1
290
     0
176
     1
290
     0
176
     1
290
     0
176
     1
 90
       50
176
     1
 40
0.0
176
     1
 40
1.0
176
     1
 90
        0
176
     1
 62
    18
420
        0
176
     1
 90
       50
176
     1
 90
        3
176
     1
 62
     5
420
      255
176
     1
290
     0
176
     1
 90
       50
176
     1
 90
       50
176
     1
 90
       50
176
     1
290
     0
176
     1
 90
       50
176
     1
 62
   256
176
     0
 40
1.0
176
     0
 90
        2
176
     1
  1
strokes_ogs.tif
176
     1
290
     0
176
     1
 40
1.0
176
     1
 40
1.0
176
     1
1001
ACAD
1000
AcDbSavedByObjectVersion
1070
     0
  0
VISUALSTYLE
  5
2E
102
{ACAD_REACTORS
330
29
102
}
330
29
100
AcDbVisualStyle
  2
Basic
 70
     7
177
     3
291
     1
 70
    58
 90
        1
176
     1
 90
        0
176
     1
 90
        1
176
     1
 90
        0
176
     1
 40
0.6
176
     1
 40
30.0
176
     1
 62
     7
420
 16777215
176
     1
 90
        0
176
     1
 90
        4
176
     1
 62
     7
176
     1
 62
   257
176
     1
 90
        1
176
     1
 90
        1
176
     1
 40
1.0
176
     1
 90
        8
176
     1
 62
     7
176
     1
 40
1.0
176
     1
 90
        1
176
     1
 90
        6
176
     1
 90
        2
176
     1
 62
     7
176
     1
 90
        5
176
     1
 90
        0
176
     1
 90
        0
176
     1
290
     0
176
     1
 90
        1
176
     1
 40
0.0
176
     1
 90
        0
176
     1
290
     0
176
     1
290
     1
176
     1
290
     1
176
     1
290
     0
176
     1
290
     0
176
     1
290
     0
176
     1
290
     0
176
     1
290
     0
176
     1
290
     0
176
     1
 90
       50
176
     1
 40
0.0
176
     1
 40
1.0
176
     1
 90
        0
176
     1
 62
    18
420
        0
176
     1
 90
       50
176
     1
 90
        3
176
     1
 62
     5
420
      255
176
     1
290
     0
176
     1
 90
       50
176
     1
 90
       50
176
     1
 90
       50
176
     1
290
     0
176
     1
 90
       50
176
     1
 62
   256
176
     0
 40
1.0
176
     0
 90
        2
176
     1
  1
strokes_ogs.tif
176
     1
290
     0
176
     1
 40
1.0
176
     1
 40
1.0
176
     1
1001
ACAD
1000
AcDbSavedByObjectVersion
1070
     0
  0
VISUALSTYLE
  5
35
102
{ACAD_REACTORS
330
29
102
}
330
29
100
AcDbVisualStyle
  2
Brighten
 70
    12
177
     3
291
     1
 70
    58
 90
        2
176
     1
 90
        2
176
     1
 90
        0
176
     1
 90
        0
176
     1
 40
0.6
176
     1
 40
30.0
176
     1
 62
     7
420
 16777215
176
     1
 90
        1
176
     1
 90
        4
176
     1
 62
     7
176
     1
 62
   257
176
     1
 90
        1
176
     1
 90
        1
176
     1
 40
1.0
176
     1
 90
        8
176
     1
 62
     7
176
     1
 40
1.0
176
     1
 90
        1
176
     1
 90
        6
176
     1
 90
        2
176
     1
 62
     7
176
     1
 90
        5
176
     1
 90
        0
176
     1
 90
        0
176
     1
290
     0
176
     1
 90
        1
176
     1
 40
50.0
176
     1
 90
        0
176
     1
290
     0
176
     1
290
     1
176
     1
290
     1
176
     1
290
     0
176
     1
290
     0
176
     1
290
     0
176
     1
290
     0
176
     1
290
     0
176
     1
290
     0
176
     1
 90
       50
176
     1
 40
0.0
176
     1
 40
1.0
176
     1
 90
        0
176
     1
 62
    18
420
        0
176
     1
 90
       50
176
     1
 90
        3
176
     1
 62
     5
420
      255
176
     1
290
     0
176
     1
 90
       50
176
     1
 90
       50
176
     1
 90
       50
176
     1
290
     0
176
     1
 90
       50
176
     1
 62
   256
176
     0
 40
1.0
176
     0
 90
        2
176
     1
  1
strokes_ogs.tif
176
     1
290
     0
176
     1
 40
1.0
176
     1
 40
1.0
176
     1
1001
ACAD
1000
AcDbSavedByObjectVersion
1070
     0
  0
VISUALSTYLE
  5
39
102
{ACAD_REACTORS
330
29
102
}
330
29
100
AcDbVisualStyle
  2
ColorChange
 70
    16
177
     3
291
     1
 70
    58
 90
        2
176
     1
 90
        2
176
     1
 90
        3
176
     1
 90
        0
176
     1
 40
0.6
176
     1
 40
30.0
176
     1
 62
     8
420
  8421504
176
     1
 90
        1
176
     1
 90
        4
176
     1
 62
     7
176
     1
 62
   257
176
     1
 90
        1
176
     1
 90
        1
176
     1
 40
1.0
176
     1
 90
        8
176
     1
 62
     8
420
  8421504
176
     1
 40
1.0
176
     1
 90
        1
176
     1
 90
        6
176
     1
 90
        2
176
     1
 62
     7
176
     1
 90
        5
176
     1
 90
        0
176
     1
 90
        0
176
     1
290
     0
176
     1
 90
        1
176
     1
 40
0.0
176
     1
 90
        0
176
     1
290
     0
176
     1
290
     1
176
     1
290
     1
176
     1
290
     0
176
     1
290
     0
176
     1
290
     0
176
     1
290
     0
176
     1
290
     0
176
     1
290
     0
176
     1
 90
       50
176
     1
 40
0.0
176
     1
 40
1.0
176
     1
 90
        0
176
     1
 62
    18
420
        0
176
     1
 90
       50
176
     1
 90
        3
176
     1
 62
     5
420
      255
176
     1
290
     0
176
     1
 90
       50
176
     1
 90
       50
176
     1
 90
       50
176
     1
290
     0
176
     1
 90
       50
176
     1
 62
   256
176
     0
 40
1.0
176
     0
 90
        2
176
     1
  1
strokes_ogs.tif
176
     1
290
     0
176
     1
 40
1.0
176
     1
 40
1.0
176
     1
1001
ACAD
1000
AcDbSavedByObjectVersion
1070
     0
  0
VISUALSTYLE
  5
32
102
{ACAD_REACTORS
330
29
102
}
330
29
100
AcDbVisualStyle
  2
Conceptual
 70
     9
177
     3
291
     0
 70
    58
 90
        3
176
     1
 90
        2
176
     1
 90
        0
176
     1
 90
        0
176
     1
 40
0.6
176
     1
 40
30.0
176
     1
 62
     7
420
 16777215
176
     1
 90
        2
176
     1
 90
        2
176
     1
 62
     7
176
     1
 62
   257
176
     1
 90
        1
176
     1
 90
        1
176
     1
 40
179.0
176
     1
 90
        8
176
     1
 62
     7
176
     1
 40
1.0
176
     1
 90
        1
176
     1
 90
        6
176
     1
 90
        2
176
     1
 62
     7
176
     1
 90
        3
176
     1
 90
        0
176
     1
 90
        0
176
     1
290
     0
176
     1
 90
        1
176
     1
 40
0.0
176
     1
 90
        0
176
     1
290
     0
176
     1
290
     1
176
     1
290
     1
176
     1
290
     0
176
     1
290
     0
176
     1
290
     0
176
     1
290
     0
176
     1
290
     0
176
     1
290
     0
176
     1
 90
       50
176
     1
 40
0.0
176
     1
 40
1.0
176
     1
 90
        0
176
     1
 62
    18
420
        0
176
     1
 90
       50
176
     1
 90
        3
176
     1
 62
     5
420
      255
176
     1
290
     0
176
     1
 90
       50
176
     1
 90
       50
176
     1
 90
       50
176
     1
290
     0
176
     1
 90
       50
176
     1
 62
   256
176
     0
 40
1.0
176
     0
 90
        2
176
     1
  1
strokes_ogs.tif
176
     1
290
     0
176
     1
 40
1.0
176
     1
 40
1.0
176
     1
1001
ACAD
1000
AcDbSavedByObjectVersion
1070
     0
  0
VISUALSTYLE
  5
34
102
{ACAD_REACTORS
330
29
102
}
330
29
100
AcDbVisualStyle
  2
Dim
 70
    11
177
     3
291
     1
 70
    58
 90
        2
176
     1
 90
        2
176
     1
 90
        0
176
     1
 90
        0
176
     1
 40
0.6
176
     1
 40
30.0
176
     1
 62
     7
420
 16777215
176
     1
 90
        1
176
     1
 90
        4
176
     1
 62
     7
176
     1
 62
   257
176
     1
 90
        1
176
     1
 90
        1
176
     1
 40
1.0
176
     1
 90
        8
176
     1
 62
     7
176
     1
 40
1.0
176
     1
 90
        1
176
     1
 90
        6
176
     1
 90
        2
176
     1
 62
     7
176
     1
 90
        5
176
     1
 90
        0
176
     1
 90
        0
176
     1
290
     0
176
     1
 90
        1
176
     1
 40
-50.0
176
     1
 90
        0
176
     1
290
     0
176
     1
290
     1
176
     1
290
     1
176
     1
290
     0
176
     1
290
     0
176
     1
290
     0
176
     1
290
     0
176
     1
290
     0
176
     1
290
     0
176
     1
 90
       50
176
     1
 40
0.0
176
     1
 40
1.0
176
     1
 90
        0
176
     1
 62
    18
420
        0
176
     1
 90
       50
176
     1
 90
        3
176
     1
 62
     5
420
      255
176
     1
290
     0
176
     1
 90
       50
176
     1
 90
       50
176
     1
 90
       50
176
     1
290
     0
176
     1
 90
       50
176
     1
 62
   256
176
     0
 40
1.0
176
     0
 90
        2
176
     1
  1
strokes_ogs.tif
176
     1
290
     0
176
     1
 40
1.0
176
     1
 40
1.0
176
     1
1001
ACAD
1000
AcDbSavedByObjectVersion
1070
     0
  0
VISUALSTYLE
  5
41
102
{ACAD_REACTORS
330
29
102
}
330
29
100
AcDbVisualStyle
  2
EdgeColorOff
 70
    22
177
     3
291
     1
 70
    58
 90
        2
176
     0
 90
        2
176
     0
 90
        0
176
     0
 90
        0
176
     0
 40
0.6
176
     0
 40
30.0
176
     0
 62
     7
420
 16777215
176
     0
 90
        1
176
     0
 90
        4
176
     0
 62
     7
176
     0
 62
   257
176
     0
 90
        1
176
     0
 90
        1
176
     0
 40
1.0
176
     0
 90
        8
176
     2
 62
     7
176
     0
 40
1.0
176
     0
 90
        1
176
     0
 90
        6
176
     0
 90
        2
176
     0
 62
     7
176
     0
 90
        5
176
     0
 90
        0
176
     0
 90
        0
176
     0
290
     0
176
     0
 90
        1
176
     0
 40
0.0
176
     0
 90
        0
176
     0
290
     0
176
     0
290
     1
176
     0
290
     1
176
     0
290
     0
176
     0
290
     0
176
     0
290
     0
176
     0
290
     0
176
     0
290
     0
176
     0
290
     0
176
     0
 90
       50
176
     0
 40
0.0
176
     0
 40
1.0
176
     0
 90
        0
176
     0
 62
    18
420
        0
176
     0
 90
       50
176
     0
 90
        3
176
     0
 62
     5
420
      255
176
     0
290
     0
176
     0
 90
       50
176
     0
 90
       50
176
     0
 90
       50
176
     0
290
     0
176
     0
 90
       50
176
     0
 62
   256
176
     0
 40
1.0
176
     0
 90
        2
176
     0
  1
strokes_ogs.tif
176
     0
290
     0
176
     0
 40
1.0
176
     0
 40
1.0
176
     0
1001
ACAD
1000
AcDbSavedByObjectVersion
1070
     0
  0
VISUALSTYLE
  5
38
102
{ACAD_REACTORS
330
29
102
}
330
29
100
AcDbVisualStyle
  2
Facepattern
 70
    15
177
     3
291
     1
 70
    58
 90
        2
176
     1
 90
        2
176
     1
 90
        0
176
     1
 90
        0
176
     1
 40
0.6
176
     1
 40
30.0
176
     1
 62
     7
420
 16777215
176
     1
 90
        1
176
     1
 90
        4
176
     1
 62
     7
176
     1
 62
   257
176
     1
 90
        1
176
     1
 90
        1
176
     1
 40
1.0
176
     1
 90
        8
176
     1
 62
     7
176
     1
 40
1.0
176
     1
 90
        1
176
     1
 90
        6
176
     1
 90
        2
176
     1
 62
     7
176
     1
 90
        5
176
     1
 90
        0
176
     1
 90
        0
176
     1
290
     0
176
     1
 90
        1
176
     1
 40
0.0
176
     1
 90
        0
176
     1
290
     0
176
     1
290
     1
176
     1
290
     1
176
     1
290
     0
176
     1
290
     0
176
     1
290
     0
176
     1
290
     0
176
     1
290
     0
176
     1
290
     0
176
     1
 90
       50
176
     1
 40
0.0
176
     1
 40
1.0
176
     1
 90
        0
176
     1
 62
    18
420
        0
176
     1
 90
       50
176
     1
 90
        3
176
     1
 62
     5
420
      255
176
     1
290
     0
176
     1
 90
       50
176
     1
 90
       50
176
     1
 90
       50
176
     1
290
     0
176
     1
 90
       50
176
     1
 62
   256
176
     0
 40
1.0
176
     0
 90
        2
176
     1
  1
strokes_ogs.tif
176
     1
290
     0
176
     1
 40
1.0
176
     1
 40
1.0
176
     1
1001
ACAD
1000
AcDbSavedByObjectVersion
1070
     0
  0
VISUALSTYLE
  5
2A
102
{ACAD_REACTORS
330
29
102
}
330
29
100
AcDbVisualStyle
  2
Flat
 70
     0
177
     3
291
     1
 70
    58
 90
        2
176
     1
 90
        1
176
     1
 90
        1
176
     1
 90
        2
176
     1
 40
0.6
176
     1
 40
30.0
176
     1
 62
     7
420
 16777215
176
     1
 90
        0
176
     1
 90
        0
176
     1
 62
     7
176
     1
 62
   257
176
     1
 90
        1
176
     1
 90
        1
176
     1
 40
1.0
176
     1
 90
        8
176
     1
 62
     7
176
     1
 40
1.0
176
     1
 90
        1
176
     1
 90
        6
176
     1
 90
        2
176
     1
 62
     7
176
     1
 90
        5
176
     1
 90
        0
176
     1
 90
        0
176
     1
290
     0
176
     1
 90
       13
176
     1
 40
0.0
176
     1
 90
        0
176
     1
290
     0
176
     1
290
     1
176
     1
290
     1
176
     1
290
     0
176
     1
290
     0
176
     1
290
     0
176
     1
290
     0
176
     1
290
     0
176
     1
290
     0
176
     1
 90
       50
176
     1
 40
0.0
176
     1
 40
1.0
176
     1
 90
        0
176
     1
 62
    18
420
        0
176
     1
 90
       50
176
     1
 90
        3
176
     1
 62
     5
420
      255
176
     1
290
     0
176
     1
 90
       50
176
     1
 90
       50
176
     1
 90
       50
176
     1
290
     0
176
     1
 90
       50
176
     1
 62
   256
176
     0
 40
1.0
176
     0
 90
        2
176
     1
  1
strokes_ogs.tif
176
     1
290
     0
176
     1
 40
1.0
176
     1
 40
1.0
176
     1
1001
ACAD
1000
AcDbSavedByObjectVersion
1070
     0
  0
VISUALSTYLE
  5
2B
102
{ACAD_REACTORS
330
29
102
}
330
29
100
AcDbVisualStyle
  2
FlatWithEdges
 70
     1
177
     3
291
     1
 70
    58
 90
        2
176
     1
 90
        1
176
     1
 90
        1
176
     1
 90
        2
176
     1
 40
0.6
176
     1
 40
30.0
176
     1
 62
     7
420
 16777215
176
     1
 90
        1
176
     1
 90
        0
176
     1
 62
     7
176
     1
 62
   257
176
     1
 90
        1
176
     1
 90
        1
176
     1
 40
1.0
176
     1
 90
        0
176
     1
 62
   257
176
     1
 40
1.0
176
     1
 90
        1
176
     1
 90
        6
176
     1
 90
        2
176
     1
 62
     7
176
     1
 90
        5
176
     1
 90
        0
176
     1
 90
        0
176
     1
290
     0
176
     1
 90
       13
176
     1
 40
0.0
176
     1
 90
        0
176
     1
290
     0
176
     1
290
     1
176
     1
290
     1
176
     1
290
     0
176
     1
290
     0
176
     1
290
     0
176
     1
290
     0
176
     1
290
     0
176
     1
290
     0
176
     1
 90
       50
176
     1
 40
0.0
176
     1
 40
1.0
176
     1
 90
        0
176
     1
 62
    18
420
        0
176
     1
 90
       50
176
     1
 90
        3
176
     1
 62
     5
420
      255
176
     1
290
     0
176
     1
 90
       50
176
     1
 90
       50
176
     1
 90
       50
176
     1
290
     0
176
     1
 90
       50
176
     1
 62
   256
176
     0
 40
1.0
176
     0
 90
        2
176
     1
  1
strokes_ogs.tif
176
     1
290
     0
176
     1
 40
1.0
176
     1
 40
1.0
176
     1
1001
ACAD
1000
AcDbSavedByObjectVersion
1070
     0
  0
VISUALSTYLE
  5
2C
102
{ACAD_REACTORS
330
29
102
}
330
29
100
AcDbVisualStyle
  2
Gouraud
 70
     2
177
     3
291
     1
 70
    58
 90
        2
176
     1
 90
        2
176
     1
 90
        1
176
     1
 90
        2
176
     1
 40
0.6
176
     1
 40
30.0
176
     1
 62
     7
420
 16777215
176
     1
 90
        0
176
     1
 90
        0
176
     1
 62
     7
176
     1
 62
   257
176
     1
 90
        1
176
     1
 90
        1
176
     1
 40
1.0
176
     1
 90
        0
176
     1
 62
     7
176
     1
 40
1.0
176
     1
 90
        1
176
     1
 90
        6
176
     1
 90
        2
176
     1
 62
     7
176
     1
 90
        5
176
     1
 90
        0
176
     1
 90
        0
176
     1
290
     0
176
     1
 90
       13
176
     1
 40
0.0
176
     1
 90
        0
176
     1
290
     0
176
     1
290
     1
176
     1
290
     1
176
     1
290
     0
176
     1
290
     0
176
     1
290
     0
176
     1
290
     0
176
     1
290
     0
176
     1
290
     0
176
     1
 90
       50
176
     1
 40
0.0
176
     1
 40
1.0
176
     1
 90
        0
176
     1
 62
    18
420
        0
176
     1
 90
       50
176
     1
 90
        3
176
     1
 62
     5
420
      255
176
     1
290
     0
176
     1
 90
       50
176
     1
 90
       50
176
     1
 90
       50
176
     1
290
     0
176
     1
 90
       50
176
     1
 62
   256
176
     0
 40
1.0
176
     0
 90
        2
176
     1
  1
strokes_ogs.tif
176
     1
290
     0
176
     1
 40
1.0
176
     1
 40
1.0
176
     1
1001
ACAD
1000
AcDbSavedByObjectVersion
1070
     0
  0
VISUALSTYLE
  5
2D
102
{ACAD_REACTORS
330
29
102
}
330
29
100
AcDbVisualStyle
  2
GouraudWithEdges
 70
     3
177
     3
291
     1
 70
    58
 90
        2
176
     1
 90
        2
176
     1
 90
        1
176
     1
 90
        2
176
     1
 40
0.6
176
     1
 40
30.0
176
     1
 62
     7
420
 16777215
176
     1
 90
        1
176
     1
 90
        0
176
     1
 62
     7
176
     1
 62
   257
176
     1
 90
        1
176
     1
 90
        1
176
     1
 40
1.0
176
     1
 90
        0
176
     1
 62
   257
176
     1
 40
1.0
176
     1
 90
        1
176
     1
 90
        6
176
     1
 90
        2
176
     1
 62
     7
176
     1
 90
        5
176
     1
 90
        0
176
     1
 90
        0
176
     1
290
     0
176
     1
 90
       13
176
     1
 40
0.0
176
     1
 90
        0
176
     1
290
     0
176
     1
290
     1
176
     1
290
     1
176
     1
290
     0
176
     1
290
     0
176
     1
290
     0
176
     1
290
     0
176
     1
290
     0
176
     1
290
     0
176
     1
 90
       50
176
     1
 40
0.0
176
     1
 40
1.0
176
     1
 90
        0
176
     1
 62
    18
420
        0
176
     1
 90
       50
176
     1
 90
        3
176
     1
 62
     5
420
      255
176
     1
290
     0
176
     1
 90
       50
176
     1
 90
       50
176
     1
 90
       50
176
     1
290
     0
176
     1
 90
       50
176
     1
 62
   256
176
     0
 40
1.0
176
     0
 90
        2
176
     1
  1
strokes_ogs.tif
176
     1
290
     0
176
     1
 40
1.0
176
     1
 40
1.0
176
     1
1001
ACAD
1000
AcDbSavedByObjectVersion
1070
     0
  0
VISUALSTYLE
  5
31
102
{ACAD_REACTORS
330
29
102
}
330
29
100
AcDbVisualStyle
  2
Hidden
 70
     6
177
     3
291
     0
 70
    58
 90
        1
176
     1
 90
        2
176
     1
 90
        2
176
     1
 90
        0
176
     1
 40
0.6
176
     1
 40
30.0
176
     1
 62
     7
420
 16777215
176
     1
 90
        2
176
     1
 90
        2
176
     1
 62
     7
176
     1
 62
   257
176
     1
 90
        2
176
     1
 90
        1
176
     1
 40
40.0
176
     1
 90
        0
176
     1
 62
   257
176
     1
 40
1.0
176
     1
 90
        1
176
     1
 90
        6
176
     1
 90
        2
176
     1
 62
     7
176
     1
 90
        3
176
     1
 90
        0
176
     1
 90
        0
176
     1
290
     0
176
     1
 90
        1
176
     1
 40
0.0
176
     1
 90
        0
176
     1
290
     0
176
     1
290
     1
176
     1
290
     1
176
     1
290
     0
176
     1
290
     0
176
     1
290
     0
176
     1
290
     0
176
     1
290
     0
176
     1
290
     0
176
     1
 90
       50
176
     1
 40
0.0
176
     1
 40
1.0
176
     1
 90
        0
176
     1
 62
    18
420
        0
176
     1
 90
       50
176
     1
 90
        3
176
     1
 62
     5
420
      255
176
     1
290
     0
176
     1
 90
       50
176
     1
 90
       50
176
     1
 90
       50
176
     1
290
     0
176
     1
 90
       50
176
     1
 62
   256
176
     0
 40
1.0
176
     0
 90
        2
176
     1
  1
strokes_ogs.tif
176
     1
290
     0
176
     1
 40
1.0
176
     1
 40
1.0
176
     1
1001
ACAD
1000
AcDbSavedByObjectVersion
1070
     0
  0
VISUALSTYLE
  5
3F
102
{ACAD_REACTORS
330
29
102
}
330
29
100
AcDbVisualStyle
  2
JitterOff
 70
    20
177
     3
291
     1
 70
    58
 90
        2
176
     0
 90
        2
176
     0
 90
        0
176
     0
 90
        0
176
     0
 40
0.6
176
     0
 40
30.0
176
     0
 62
     7
420
 16777215
176
     0
 90
        1
176
     0
 90
        4
176
     0
 62
     7
176
     0
 62
   257
176
     0
 90
        1
176
     0
 90
        1
176
     0
 40
1.0
176
     0
 90
       10
176
     2
 62
     7
176
     0
 40
1.0
176
     0
 90
        1
176
     0
 90
        6
176
     0
 90
        2
176
     0
 62
     7
176
     0
 90
        5
176
     0
 90
        0
176
     0
 90
        0
176
     0
290
     0
176
     0
 90
        1
176
     0
 40
0.0
176
     0
 90
        0
176
     0
290
     0
176
     0
290
     1
176
     0
290
     1
176
     0
290
     0
176
     0
290
     0
176
     0
290
     0
176
     0
290
     0
176
     0
290
     0
176
     0
290
     0
176
     0
 90
       50
176
     0
 40
0.0
176
     0
 40
1.0
176
     0
 90
        0
176
     0
 62
    18
420
        0
176
     0
 90
       50
176
     0
 90
        3
176
     0
 62
     5
420
      255
176
     0
290
     0
176
     0
 90
       50
176
     0
 90
       50
176
     0
 90
       50
176
     0
290
     0
176
     0
 90
       50
176
     0
 62
   256
176
     0
 40
1.0
176
     0
 90
        2
176
     0
  1
strokes_ogs.tif
176
     0
290
     0
176
     0
 40
1.0
176
     0
 40
1.0
176
     0
1001
ACAD
1000
AcDbSavedByObjectVersion
1070
     0
  0
VISUALSTYLE
  5
37
102
{ACAD_REACTORS
330
29
102
}
330
29
100
AcDbVisualStyle
  2
Linepattern
 70
    14
177
     3
291
     1
 70
    58
 90
        2
176
     1
 90
        2
176
     1
 90
        0
176
     1
 90
        0
176
     1
 40
0.6
176
     1
 40
30.0
176
     1
 62
     7
420
 16777215
176
     1
 90
        1
176
     1
 90
        4
176
     1
 62
     7
176
     1
 62
   257
176
     1
 90
        7
176
     1
 90
        7
176
     1
 40
1.0
176
     1
 90
        8
176
     1
 62
     7
176
     1
 40
1.0
176
     1
 90
        1
176
     1
 90
        6
176
     1
 90
        2
176
     1
 62
     7
176
     1
 90
        5
176
     1
 90
        0
176
     1
 90
        0
176
     1
290
     0
176
     1
 90
        1
176
     1
 40
0.0
176
     1
 90
        0
176
     1
290
     0
176
     1
290
     1
176
     1
290
     1
176
     1
290
     0
176
     1
290
     0
176
     1
290
     0
176
     1
290
     0
176
     1
290
     0
176
     1
290
     0
176
     1
 90
       50
176
     1
 40
0.0
176
     1
 40
1.0
176
     1
 90
        0
176
     1
 62
    18
420
        0
176
     1
 90
       50
176
     1
 90
        3
176
     1
 62
     5
420
      255
176
     1
290
     0
176
     1
 90
       50
176
     1
 90
       50
176
     1
 90
       50
176
     1
290
     0
176
     1
 90
       50
176
     1
 62
   256
176
     0
 40
1.0
176
     0
 90
        2
176
     1
  1
strokes_ogs.tif
176
     1
290
     0
176
     1
 40
1.0
176
     1
 40
1.0
176
     1
1001
ACAD
1000
AcDbSavedByObjectVersion
1070
     0
  0
VISUALSTYLE
  5
40
102
{ACAD_REACTORS
330
29
102
}
330
29
100
AcDbVisualStyle
  2
OverhangOff
 70
    21
177
     3
291
     1
 70
    58
 90
        2
176
     0
 90
        2
176
     0
 90
        0
176
     0
 90
        0
176
     0
 40
0.6
176
     0
 40
30.0
176
     0
 62
     7
420
 16777215
176
     0
 90
        1
176
     0
 90
        4
176
     0
 62
     7
176
     0
 62
   257
176
     0
 90
        1
176
     0
 90
        1
176
     0
 40
1.0
176
     0
 90
        9
176
     2
 62
     7
176
     0
 40
1.0
176
     0
 90
        1
176
     0
 90
        6
176
     0
 90
        2
176
     0
 62
     7
176
     0
 90
        5
176
     0
 90
        0
176
     0
 90
        0
176
     0
290
     0
176
     0
 90
        1
176
     0
 40
0.0
176
     0
 90
        0
176
     0
290
     0
176
     0
290
     1
176
     0
290
     1
176
     0
290
     0
176
     0
290
     0
176
     0
290
     0
176
     0
290
     0
176
     0
290
     0
176
     0
290
     0
176
     0
 90
       50
176
     0
 40
0.0
176
     0
 40
1.0
176
     0
 90
        0
176
     0
 62
    18
420
        0
176
     0
 90
       50
176
     0
 90
        3
176
     0
 62
     5
420
      255
176
     0
290
     0
176
     0
 90
       50
176
     0
 90
       50
176
     0
 90
       50
176
     0
290
     0
176
     0
 90
       50
176
     0
 62
   256
176
     0
 40
1.0
176
     0
 90
        2
176
     0
  1
strokes_ogs.tif
176
     0
290
     0
176
     0
 40
1.0
176
     0
 40
1.0
176
     0
1001
ACAD
1000
AcDbSavedByObjectVersion
1070
     0
  0
VISUALSTYLE
  5
33
102
{ACAD_REACTORS
330
29
102
}
330
29
100
AcDbVisualStyle
  2
Realistic
 70
     8
177
     3
291
     0
 70
    58
 90
        2
176
     1
 90
        3
176
     1
 90
        0
176
     1
 90
        2
176
     1
 40
0.6
176
     1
 40
30.0
176
     1
 62
     7
420
 16777215
176
     1
 90
        0
176
     1
 90
        0
176
     1
 62
     7
176
     1
 62
   257
176
     1
 90
        1
176
     1
 90
        1
176
     1
 40
1.0
176
     1
 90
        8
176
     1
 62
   257
176
     1
 40
1.0
176
     1
 90
        1
176
     1
 90
        6
176
     1
 90
        2
176
     1
 62
     7
176
     1
 90
        3
176
     1
 90
        0
176
     1
 90
        0
176
     1
290
     0
176
     1
 90
       13
176
     1
 40
0.0
176
     1
 90
        0
176
     1
290
     0
176
     1
290
     1
176
     1
290
     1
176
     1
290
     0
176
     1
290
     0
176
     1
290
     0
176
     1
290
     0
176
     1
290
     0
176
     1
290
     0
176
     1
 90
       50
176
     1
 40
0.0
176
     1
 40
1.0
176
     1
 90
        0
176
     1
 62
    18
420
        0
176
     1
 90
       50
176
     1
 90
        3
176
     1
 62
     5
420
      255
176
     1
290
     0
176
     1
 90
       50
176
     1
 90
       50
176
     1
 90
       50
176
     1
290
     0
176
     1
 90
       50
176
     1
 62
   256
176
     0
 40
1.0
176
     0
 90
        2
176
     1
  1
strokes_ogs.tif
176
     1
290
     0
176
     1
 40
1.0
176
     1
 40
1.0
176
     1
1001
ACAD
1000
AcDbSavedByObjectVersion
1070
     0
  0
VISUALSTYLE
  5
3E
102
{ACAD_REACTORS
330
29
102
}
330
29
100
AcDbVisualStyle
  2
Shaded
 70
    27
177
     3
291
     0
 70
    58
 90
        2
176
     1
 90
        2
176
     1
 90
        1
176
     1
 90
        2
176
     1
 40
0.6
176
     1
 40
30.0
176
     1
 62
     7
420
 16777215
176
     1
 90
        0
176
     1
 90
        4
176
     1
 62
     7
176
     1
 62
   257
176
     1
 90
        1
176
     1
 90
        1
176
     1
 40
1.0
176
     1
 90
        8
176
     1
 62
   257
176
     1
 40
1.0
176
     1
 90
        1
176
     1
 90
        6
176
     1
 90
        2
176
     1
 62
     8
420
  7895160
176
     1
 90
        3
176
     1
 90
        0
176
     1
 90
        0
176
     1
290
     0
176
     1
 90
        5
176
     1
 40
0.0
176
     1
 90
        0
176
     1
290
     0
176
     1
290
     1
176
     1
290
     1
176
     1
290
     0
176
     1
290
     0
176
     1
290
     0
176
     1
290
     0
176
     1
290
     0
176
     1
290
     0
176
     1
 90
       50
176
     1
 40
0.0
176
     1
 40
1.0
176
     1
 90
        0
176
     1
 62
    18
420
        0
176
     1
 90
       50
176
     1
 90
        3
176
     1
 62
     5
420
      255
176
     1
290
     0
176
     1
 90
       50
176
     1
 90
       50
176
     1
 90
       50
176
     1
290
     0
176
     1
 90
       50
176
     1
 62
   256
176
     0
 40
1.0
176
     0
 90
        2
176
     1
  1
strokes_ogs.tif
176
     1
290
     0
176
     1
 40
1.0
176
     1
 40
1.0
176
     1
1001
ACAD
1000
AcDbSavedByObjectVersion
1070
     0
  0
VISUALSTYLE
  5
3D
102
{ACAD_REACTORS
330
29
102
}
330
29
100
AcDbVisualStyle
  2
Shaded with edges
 70
    26
177
     3
291
     0
 70
    58
 90
        2
176
     1
 90
        2
176
     1
 90
        1
176
     1
 90
        2
176
     1
 40
0.6
176
     1
 40
30.0
176
     1
 62
     7
420
 16777215
176
     1
 90
        1
176
     1
 90
        2
176
     1
 62
     7
176
     1
 62
   257
176
     1
 90
        2
176
     1
 90
        1
176
     1
 40
1.0
176
     1
 90
        8
176
     1
 62
   257
176
     1
 40
1.0
176
     1
 90
        1
176
     1
 90
        6
176
     1
 90
        2
176
     1
 62
     7
176
     1
 90
        3
176
     1
 90
        0
176
     1
 90
        0
176
     1
290
     0
176
     1
 90
        5
176
     1
 40
0.0
176
     1
 90
        0
176
     1
290
     0
176
     1
290
     1
176
     1
290
     1
176
     1
290
     0
176
     1
290
     0
176
     1
290
     0
176
     1
290
     0
176
     1
290
     0
176
     1
290
     0
176
     1
 90
       50
176
     1
 40
0.0
176
     1
 40
1.0
176
     1
 90
        0
176
     1
 62
    18
420
        0
176
     1
 90
       50
176
     1
 90
        3
176
     1
 62
     5
420
      255
176
     1
290
     0
176
     1
 90
       50
176
     1
 90
       50
176
     1
 90
       50
176
     1
290
     0
176
     1
 90
       50
176
     1
 62
   256
176
     0
 40
1.0
176
     0
 90
        2
176
     1
  1
strokes_ogs.tif
176
     1
290
     0
176
     1
 40
1.0
176
     1
 40
1.0
176
     1
1001
ACAD
1000
AcDbSavedByObjectVersion
1070
     0
  0
VISUALSTYLE
  5
3A
102
{ACAD_REACTORS
330
29
102
}
330
29
100
AcDbVisualStyle
  2
Shades of Gray
 70
    23
177
     3
291
     0
 70
    58
 90
        2
176
     1
 90
        2
176
     1
 90
        3
176
     1
 90
        0
176
     1
 40
0.6
176
     1
 40
30.0
176
     1
 62
     7
420
 16777215
176
     1
 90
        2
176
     1
 90
        2
176
     1
 62
     7
176
     1
 62
     7
176
     1
 90
        1
176
     1
 90
        1
176
     1
 40
40.0
176
     1
 90
        8
176
     1
 62
     7
176
     1
 40
1.0
176
     1
 90
        1
176
     1
 90
        6
176
     1
 90
        2
176
     1
 62
     7
176
     1
 90
        3
176
     1
 90
        0
176
     1
 90
        0
176
     1
290
     0
176
     1
 90
        1
176
     1
 40
0.0
176
     1
 90
        0
176
     1
290
     0
176
     1
290
     1
176
     1
290
     1
176
     1
290
     0
176
     1
290
     0
176
     1
290
     0
176
     1
290
     0
176
     1
290
     0
176
     1
290
     0
176
     1
 90
       50
176
     1
 40
0.0
176
     1
 40
1.0
176
     1
 90
        0
176
     1
 62
    18
420
        0
176
     1
 90
       50
176
     1
 90
        3
176
     1
 62
     5
420
      255
176
     1
290
     0
176
     1
 90
       50
176
     1
 90
       50
176
     1
 90
       50
176
     1
290
     0
176
     1
 90
       50
176
     1
 62
   256
176
     0
 40
1.0
176
     0
 90
        2
176
     1
  1
strokes_ogs.tif
176
     1
290
     0
176
     1
 40
1.0
176
     1
 40
1.0
176
     1
1001
ACAD
1000
AcDbSavedByObjectVersion
1070
     0
  0
VISUALSTYLE
  5
3B
102
{ACAD_REACTORS
330
29
102
}
330
29
100
AcDbVisualStyle
  2
Sketchy
 70
    24
177
     3
291
     0
 70
    58
 90
        1
176
     1
 90
        2
176
     1
 90
        2
176
     1
 90
        0
176
     1
 40
0.6
176
     1
 40
30.0
176
     1
 62
     7
420
 16777215
176
     1
 90
        2
176
     1
 90
        2
176
     1
 62
     7
176
     1
 62
     7
176
     1
 90
        1
176
     1
 90
        1
176
     1
 40
40.0
176
     1
 90
       11
176
     1
 62
     7
176
     1
 40
1.0
176
     1
 90
        1
176
     1
 90
        6
176
     1
 90
        2
176
     1
 62
     7
176
     1
 90
        6
176
     1
 90
        0
176
     1
 90
        0
176
     1
290
     0
176
     1
 90
        1
176
     1
 40
0.0
176
     1
 90
        0
176
     1
290
     0
176
     1
290
     1
176
     1
290
     1
176
     1
290
     0
176
     1
290
     0
176
     1
290
     0
176
     1
290
     0
176
     1
290
     0
176
     1
290
     0
176
     1
 90
       50
176
     1
 40
0.0
176
     1
 40
1.0
176
     1
 90
        0
176
     1
 62
    18
420
        0
176
     1
 90
       50
176
     1
 90
        3
176
     1
 62
     5
420
      255
176
     1
290
     0
176
     1
 90
       50
176
     1
 90
       50
176
     1
 90
       50
176
     1
290
     0
176
     1
 90
       50
176
     1
 62
   256
176
     0
 40
1.0
176
     0
 90
        2
176
     1
  1
strokes_ogs.tif
176
     1
290
     0
176
     1
 40
1.0
176
     1
 40
1.0
176
     1
1001
ACAD
1000
AcDbSavedByObjectVersion
1070
     0
  0
VISUALSTYLE
  5
36
102
{ACAD_REACTORS
330
29
102
}
330
29
100
AcDbVisualStyle
  2
Thicken
 70
    13
177
     3
291
     1
 70
    58
 90
        2
176
     1
 90
        2
176
     1
 90
        0
176
     1
 90
        0
176
     1
 40
0.6
176
     1
 40
30.0
176
     1
 62
     7
420
 16777215
176
     1
 90
        1
176
     1
 90
        4
176
     1
 62
     7
176
     1
 62
   257
176
     1
 90
        1
176
     1
 90
        1
176
     1
 40
1.0
176
     1
 90
       12
176
     1
 62
     7
176
     1
 40
1.0
176
     1
 90
        1
176
     1
 90
        6
176
     1
 90
        2
176
     1
 62
     7
176
     1
 90
        5
176
     1
 90
        0
176
     1
 90
        0
176
     1
290
     0
176
     1
 90
        1
176
     1
 40
0.0
176
     1
 90
        0
176
     1
290
     0
176
     1
290
     1
176
     1
290
     1
176
     1
290
     0
176
     1
290
     0
176
     1
290
     0
176
     1
290
     0
176
     1
290
     0
176
     1
290
     0
176
     1
 90
       50
176
     1
 40
0.0
176
     1
 40
1.0
176
     1
 90
        0
176
     1
 62
    18
420
        0
176
     1
 90
       50
176
     1
 90
        3
176
     1
 62
     5
420
      255
176
     1
290
     0
176
     1
 90
       50
176
     1
 90
       50
176
     1
 90
       50
176
     1
290
     0
176
     1
 90
       50
176
     1
 62
   256
176
     0
 40
1.0
176
     0
 90
        2
176
     1
  1
strokes_ogs.tif
176
     1
290
     0
176
     1
 40
1.0
176
     1
 40
1.0
176
     1
1001
ACAD
1000
AcDbSavedByObjectVersion
1070
     0
  0
VISUALSTYLE
  5
30
102
{ACAD_REACTORS
330
29
102
}
330
29
100
AcDbVisualStyle
  2
Wireframe
 70
     5
177
     3
291
     0
 70
    58
 90
        0
176
     1
 90
        2
176
     1
 90
        0
176
     1
 90
        0
176
     1
 40
0.6
176
     1
 40
30.0
176
     1
 62
     7
420
 16777215
176
     1
 90
        1
176
     1
 90
        4
176
     1
 62
     7
176
     1
 62
   257
176
     1
 90
        1
176
     1
 90
        1
176
     1
 40
1.0
176
     1
 90
        0
176
     1
 62
   257
176
     1
 40
1.0
176
     1
 90
        1
176
     1
 90
        6
176
     1
 90
        2
176
     1
 62
     7
176
     1
 90
        3
176
     1
 90
        0
176
     1
 90
        0
176
     1
290
     0
176
     1
 90
        1
176
     1
 40
0.0
176
     1
 90
        0
176
     1
290
     0
176
     1
290
     1
176
     1
290
     1
176
     1
290
     0
176
     1
290
     0
176
     1
290
     0
176
     1
290
     0
176
     1
290
     0
176
     1
290
     0
176
     1
 90
       50
176
     1
 40
0.0
176
     1
 40
1.0
176
     1
 90
        0
176
     1
 62
    18
420
        0
176
     1
 90
       50
176
     1
 90
        3
176
     1
 62
     5
420
      255
176
     1
290
     0
176
     1
 90
       50
176
     1
 90
       50
176
     1
 90
       50
176
     1
290
     0
176
     1
 90
       50
176
     1
 62
   256
176
     0
 40
1.0
176
     0
 90
        2
176
     1
  1
strokes_ogs.tif
176
     1
290
     0
176
     1
 40
1.0
176
     1
 40
1.0
176
     1
1001
ACAD
1000
AcDbSavedByObjectVersion
1070
     0
  0
VISUALSTYLE
  5
3C
102
{ACAD_REACTORS
330
29
102
}
330
29
100
AcDbVisualStyle
  2
X-Ray
 70
    25
177
     3
291
     0
 70
    58
 90
        2
176
     1
 90
        2
176
     1
 90
        1
176
     1
 90
        1
176
     1
 40
0.5
176
     1
 40
30.0
176
     1
 62
     7
420
 16777215
176
     1
 90
        1
176
     1
 90
        0
176
     1
 62
     7
176
     1
 62
   257
176
     1
 90
        1
176
     1
 90
        1
176
     1
 40
1.0
176
     1
 90
        8
176
     1
 62
     7
176
     1
 40
1.0
176
     1
 90
        1
176
     1
 90
        6
176
     1
 90
        2
176
     1
 62
     7
176
     1
 90
        3
176
     1
 90
        0
176
     1
 90
        0
176
     1
290
     0
176
     1
 90
       13
176
     1
 40
0.0
176
     1
 90
        0
176
     1
290
     0
176
     1
290
     1
176
     1
290
     1
176
     1
290
     0
176
     1
290
     0
176
     1
290
     0
176
     1
290
     0
176
     1
290
     0
176
     1
290
     0
176
     1
 90
       50
176
     1
 40
0.0
176
     1
 40
1.0
176
     1
 90
        0
176
     1
 62
    18
420
        0
176
     1
 90
       50
176
     1
 90
        3
176
     1
 62
     5
420
      255
176
     1
290
     0
176
     1
 90
       50
176
     1
 90
       50
176
     1
 90
       50
176
     1
290
     0
176
     1
 90
       50
176
     1
 62
   256
176
     0
 40
1.0
176
     0
 90
        2
176
     1
  1
strokes_ogs.tif
176
     1
290
     0
176
     1
 40
1.0
176
     1
 40
1.0
176
     1
1001
ACAD
1000
AcDbSavedByObjectVersion
1070
     0
  0
DICTIONARYVAR
  5
193
102
{ACAD_REACTORS
330
18E
102
}
330
18E
100
DictionaryVariables
280
     0
  1
1:1
  0
DICTIONARYVAR
  5
190
102
{ACAD_REACTORS
330
18E
102
}
330
18E
100
DictionaryVariables
280
     0
  1
STANDARD
  0
DICTIONARYVAR
  5
18F
102
{ACAD_REACTORS
330
18E
102
}
330
18E
100
DictionaryVariables
280
     0
  1
STANDARD
  0
DICTIONARYVAR
  5
191
102
{ACAD_REACTORS
330
18E
102
}
330
18E
100
DictionaryVariables
280
     0
  1
Imperial24
  0
DICTIONARYVAR
  5
192
102
{ACAD_REACTORS
330
18E
102
}
330
18E
100
DictionaryVariables
280
     0
  1
Imperial24
  0
DICTIONARY
  5
199
330
6B
100
AcDbDictionary
280
     1
281
     1
  3
ACAD_XREC_ROUNDTRIP
360
19A
  0
DICTIONARY
  5
1A
330
19
100
AcDbDictionary
280
     1
281
     1
  3
BUMPTILE
360
1C
  3
DIFFUSETILE
360
1B
  3
OPACITYTILE
360
1F
  3
REFLECTIONTILE
360
1E
  3
REFRACTIONTILE
360
20
  3
SPECULARTILE
360
1D
  0
DICTIONARY
  5
12
330
11
100
AcDbDictionary
280
     1
281
     1
  3
BUMPTILE
360
14
  3
DIFFUSETILE
360
13
  3
OPACITYTILE
360
17
  3
REFLECTIONTILE
360
16
  3
REFRACTIONTILE
360
18
  3
SPECULARTILE
360
15
  0
DICTIONARY
  5
22
330
21
100
AcDbDictionary
280
     1
281
     1
  3
BUMPTILE
360
24
  3
DIFFUSETILE
360
23
  3
OPACITYTILE
360
27
  3
REFLECTIONTILE
360
26
  3
REFRACTIONTILE
360
28
  3
SPECULARTILE
360
25
  0
DICTIONARY
  5
197
330
69
100
AcDbDictionary
280
     1
281
     1
  3
ACAD_XREC_ROUNDTRIP
360
198
  0
DICTIONARY
  5
194
330
65
100
AcDbDictionary
280
     1
281
     1
  3
ACAD_ROUNDTRIP_2008_TABLESTYLE_CELLSTYLEMAP
360
195
  0
XRECORD
  5
19A
102
{ACAD_REACTORS
330
199
102
}
330
199
100
AcDbXrecord
280
     1
102
DISPLAYNAME
  1
Imperial24
102
FLAGS
 90
        0
  0
XRECORD
  5
1C
102
{ACAD_REACTORS
330
1A
102
}
330
1A
100
AcDbXrecord
280
     1
270
     1
271
     1
  0
XRECORD
  5
1B
102
{ACAD_REACTORS
330
1A
102
}
330
1A
100
AcDbXrecord
280
     1
270
     1
271
     1
  0
XRECORD
  5
1F
102
{ACAD_REACTORS
330
1A
102
}
330
1A
100
AcDbXrecord
280
     1
270
     1
271
     1
  0
XRECORD
  5
1E
102
{ACAD_REACTORS
330
1A
102
}
330
1A
100
AcDbXrecord
280
     1
270
     1
271
     1
  0
XRECORD
  5
20
102
{ACAD_REACTORS
330
1A
102
}
330
1A
100
AcDbXrecord
280
     1
270
     1
271
     1
  0
XRECORD
  5
1D
102
{ACAD_REACTORS
330
1A
102
}
330
1A
100
AcDbXrecord
280
     1
270
     1
271
     1
  0
XRECORD
  5
14
102
{ACAD_REACTORS
330
12
102
}
330
12
100
AcDbXrecord
280
     1
270
     1
271
     1
  0
XRECORD
  5
13
102
{ACAD_REACTORS
330
12
102
}
330
12
100
AcDbXrecord
280
     1
270
     1
271
     1
  0
XRECORD
  5
17
102
{ACAD_REACTORS
330
12
102
}
330
12
100
AcDbXrecord
280
     1
270
     1
271
     1
  0
XRECORD
  5
16
102
{ACAD_REACTORS
330
12
102
}
330
12
100
AcDbXrecord
280
     1
270
     1
271
     1
  0
XRECORD
  5
18
102
{ACAD_REACTORS
330
12
102
}
330
12
100
AcDbXrecord
280
     1
270
     1
271
     1
  0
XRECORD
  5
15
102
{ACAD_REACTORS
330
12
102
}
330
12
100
AcDbXrecord
280
     1
270
     1
271
     1
  0
XRECORD
  5
24
102
{ACAD_REACTORS
330
22
102
}
330
22
100
AcDbXrecord
280
     1
270
     1
271
     1
  0
XRECORD
  5
23
102
{ACAD_REACTORS
330
22
102
}
330
22
100
AcDbXrecord
280
     1
270
     1
271
     1
  0
XRECORD
  5
27
102
{ACAD_REACTORS
330
22
102
}
330
22
100
AcDbXrecord
280
     1
270
     1
271
     1
  0
XRECORD
  5
26
102
{ACAD_REACTORS
330
22
102
}
330
22
100
AcDbXrecord
280
     1
270
     1
271
     1
  0
XRECORD
  5
28
102
{ACAD_REACTORS
330
22
102
}
330
22
100
AcDbXrecord
280
     1
270
     1
271
     1
  0
XRECORD
  5
25
102
{ACAD_REACTORS
330
22
102
}
330
22
100
AcDbXrecord
280
     1
270
     1
271
     1
  0
XRECORD
  5
198
102
{ACAD_REACTORS
330
197
102
}
330
197
100
AcDbXrecord
280
     1
102
DISPLAYNAME
  1
Imperial24
102
FLAGS
 90
        0
  0
CELLSTYLEMAP
  5
195
102
{ACAD_REACTORS
330
194
102
}
330
194
100
AcDbCellStyleMap
 90
        3
300
CELLSTYLE
  1
TABLEFORMAT_BEGIN
 90
        5
170
     1
 91
        0
 92
    32768
 62
   257
 93
        1
300
CONTENTFORMAT
  1
CONTENTFORMAT_BEGIN
 90
        0
 91
        0
 92
      512
 93
        0
300

 40
0.0
140
1.0
 94
        5
 62
     0
340
55
144
0.25
309
CONTENTFORMAT_END
171
     0
 94
        0
309
TABLEFORMAT_END
  1
CELLSTYLE_BEGIN
 90
        1
 91
        1
300
_TITLE
309
CELLSTYLE_END
300
CELLSTYLE
  1
TABLEFORMAT_BEGIN
 90
        5
170
     1
 91
        0
 92
        0
 62
   257
 93
        1
300
CONTENTFORMAT
  1
CONTENTFORMAT_BEGIN
 90
        0
 91
        0
 92
      512
 93
        0
300

 40
0.0
140
1.0
 94
        5
 62
     0
340
55
144
0.18
309
CONTENTFORMAT_END
171
     0
 94
        0
309
TABLEFORMAT_END
  1
CELLSTYLE_BEGIN
 90
        2
 91
        1
300
_HEADER
309
CELLSTYLE_END
300
CELLSTYLE
  1
TABLEFORMAT_BEGIN
 90
        5
170
     1
 91
        0
 92
        0
 62
   257
 93
        1
300
CONTENTFORMAT
  1
CONTENTFORMAT_BEGIN
 90
        0
 91
        0
 92
      512
 93
        0
300

 40
0.0
140
1.0
 94
        2
 62
     0
340
55
144
0.18
309
CONTENTFORMAT_END
171
     0
 94
        0
309
TABLEFORMAT_END
  1
CELLSTYLE_BEGIN
 90
        3
 91
        2
300
_DATA
309
CELLSTYLE_END
  0
ENDSEC
  0
EOF
